<?xml version="1.0" encoding="UTF-8" standalone="no"?>
<!DOCTYPE svg PUBLIC "-//W3C//DTD SVG 1.1//EN" "http://www.w3.org/Graphics/SVG/1.1/DTD/svg11.dtd">
<svg version="1.1" xmlns="http://www.w3.org/2000/svg" xmlns:xlink="http://www.w3.org/1999/xlink" preserveAspectRatio="xMidYMid meet" viewBox="0 0 249.6 434.76" width="249.6" height="434.76"><defs><path d="M84.49 92.65L198.89 104.67L176.86 314.25L62.46 302.22L84.49 92.65Z" id="a4c9EJAg4n"></path><path d="M99.44 292.51L126.84 295.39L122.19 339.6L94.79 336.72L99.44 292.51Z" id="ah10bVawT"></path><path d="M167.64 235.52L205.13 239.46L199.17 296.18L161.68 292.24L167.64 235.52Z" id="hCyZ1NgSp"></path><path d="M147.85 40.02L187.75 44.22L180.27 115.35L140.37 111.16L147.85 40.02Z" id="cdWEkriij"></path><path d="M92.73 60.46L123.49 63.7L118.34 112.73L87.58 109.49L92.73 60.46Z" id="c2kMY4t1RZ"></path><path d="M113.27 105.4L157.5 110.04L166.8 21.6L122.57 16.95L113.27 105.4Z" id="gGDHaqNnG"></path><path d="M138.77 0.01L138.91 0.04L139.06 0.06L139.21 0.1L139.38 0.15L139.55 0.2L139.74 0.26L139.93 0.33L140.14 0.4L140.35 0.48L140.56 0.57L140.79 0.67L141.03 0.76L141.27 0.88L141.52 0.99L141.78 1.11L142.04 1.23L142.32 1.37L142.58 1.51L142.87 1.65L143.16 1.8L143.45 1.95L144.04 2.28L144.36 2.44L144.66 2.61L145.29 2.98L145.93 3.35L146.25 3.55L146.58 3.74L146.9 3.95L147.23 4.15L149.08 5.34L151.02 6.63L153.07 8.01L155.21 9.47L157.43 11.02L159.73 12.63L162.09 14.31L164.51 16.05L166.98 17.84L169.49 19.68L172.04 21.56L174.61 23.48L177.2 25.42L179.8 27.38L182.41 29.36L185.01 31.35L187.59 33.34L190.15 35.32L192.69 37.29L195.19 39.26L197.64 41.19L200.03 43.1L202.38 44.98L204.64 46.81L206.83 48.59L208.94 50.32L210.95 51.99L212.86 53.59L214.67 55.12L216.35 56.57L217.91 57.93L219.33 59.21L220.63 60.38L221.76 61.46L222.74 62.41L223.55 63.26L224.2 63.97L224.66 64.57L224.94 65.02L225 65.34L224.97 65.56L224.92 65.79L224.84 66.02L224.75 66.25L224.63 66.48L224.5 66.72L224.34 66.96L224.15 67.2L223.95 67.43L223.72 67.67L223.48 67.92L223.2 68.16L222.9 68.41L222.57 68.67L222.22 68.92L221.84 69.19L221.44 69.46L221.02 69.72L220.57 70L220.09 70.27L219.58 70.56L219.05 70.84L218.48 71.14L217.89 71.43L217.27 71.73L216.62 72.04L215.94 72.36L215.23 72.67L214.5 73L213.72 73.33L212.92 73.67L212.09 74.02L211.21 74.37L210.32 74.73L209.39 75.11L208.42 75.48L207.43 75.87L206.4 76.26L205.33 76.66L204.23 77.07L189.74 82.51L193.6 89.07L195.25 91.94L196.89 94.8L198.52 97.65L200.14 100.49L201.75 103.32L203.34 106.13L204.91 108.92L206.46 111.68L207.98 114.42L209.49 117.13L210.96 119.79L212.41 122.42L213.83 125L215.22 127.55L216.57 130.04L217.89 132.48L219.17 134.87L220.42 137.19L221.62 139.45L222.78 141.64L223.89 143.76L224.96 145.8L225.98 147.78L226.96 149.67L227.88 151.47L228.75 153.19L229.56 154.81L230.31 156.35L231 157.78L231.64 159.11L232.21 160.33L232.72 161.45L233.17 162.45L233.54 163.34L233.84 164.11L234.07 164.76L234.23 165.28L234.31 165.66L234.31 165.92L234.24 166.03L234.16 166.06L234.04 166.1L233.92 166.14L233.76 166.18L233.59 166.22L233.39 166.27L233.18 166.3L232.95 166.35L232.69 166.4L232.43 166.45L232.13 166.5L231.82 166.55L231.5 166.6L231.16 166.65L230.8 166.72L230.43 166.77L230.04 166.83L229.64 166.89L229.23 166.94L228.8 167L228.36 167.06L227.9 167.13L226.96 167.25L226.47 167.31L225.97 167.37L225.46 167.43L224.95 167.49L223.89 167.62L223.35 167.68L222.8 167.75L221.68 167.87L220.54 167.99L218.8 168.17L218.21 168.23L217.62 168.3L217.04 168.37L216.47 168.43L215.9 168.5L215.33 168.56L214.23 168.69L213.69 168.75L213.16 168.81L212.64 168.86L212.14 168.92L211.64 168.98L211.15 169.04L210.67 169.09L210.2 169.14L209.75 169.19L209.31 169.23L208.88 169.28L208.46 169.33L208.07 169.38L207.68 169.42L207.3 169.46L206.95 169.5L206.61 169.53L206.29 169.57L205.98 169.61L205.69 169.65L205.42 169.68L205.17 169.7L204.93 169.74L204.72 169.77L204.51 169.79L204.34 169.81L204.19 169.83L204.05 169.85L203.94 169.87L203.85 169.89L203.78 169.9L203.73 169.91L203.7 169.92L203.7 169.96L203.74 170.07L203.8 170.22L203.9 170.45L204.03 170.73L204.2 171.07L204.39 171.46L204.62 171.91L204.87 172.41L205.16 172.96L205.47 173.57L205.82 174.23L206.19 174.93L206.58 175.68L207 176.48L207.45 177.32L207.92 178.21L208.42 179.14L208.94 180.11L209.48 181.12L210.04 182.17L210.62 183.25L211.23 184.38L211.85 185.53L212.5 186.72L213.15 187.95L213.84 189.2L214.52 190.49L215.24 191.8L215.97 193.14L216.72 194.51L217.46 195.9L218.24 197.31L219.03 198.75L219.82 200.21L220.63 201.7L221.44 203.19L222.27 204.71L223.12 206.24L224.8 209.33L225.65 210.85L226.47 212.36L227.29 213.85L228.1 215.32L228.89 216.78L229.68 218.21L230.46 219.62L231.21 221.01L231.96 222.37L232.68 223.71L233.4 225.02L234.09 226.3L234.77 227.55L235.43 228.77L236.08 229.96L236.7 231.11L237.31 232.24L237.89 233.31L238.45 234.37L238.99 235.38L239.51 236.35L240 237.28L240.47 238.16L240.93 239.01L241.35 239.81L241.74 240.57L242.11 241.27L242.45 241.94L242.77 242.54L243.05 243.11L243.3 243.61L243.53 244.06L243.72 244.46L243.89 244.81L244.02 245.1L244.11 245.33L244.18 245.51L244.22 245.61L244.21 245.66L244.11 245.7L244.01 245.71L243.89 245.73L243.74 245.74L243.57 245.75L243.36 245.77L243.13 245.78L242.88 245.79L242.61 245.8L242.3 245.82L241.98 245.83L241.64 245.83L241.26 245.84L240.88 245.85L240.47 245.86L240.04 245.87L239.58 245.87L239.12 245.88L238.63 245.88L238.12 245.89L237.6 245.88L237.06 245.88L236.5 245.89L235.93 245.89L235.34 245.89L234.74 245.87L234.12 245.88L233.5 245.87L232.86 245.87L232.2 245.86L230.86 245.84L229.47 245.81L228.77 245.81L227.33 245.78L225.86 245.74L207.81 245.46L229.03 308.59L230.48 312.93L231.89 317.08L233.23 321.08L234.5 324.9L235.73 328.56L236.89 332.06L237.99 335.39L239.04 338.58L240.03 341.61L240.97 344.48L241.85 347.22L242.68 349.81L243.46 352.27L244.18 354.59L244.87 356.77L245.49 358.82L246.07 360.75L246.6 362.55L247.09 364.23L247.53 365.79L247.92 367.24L248.27 368.57L248.58 369.8L248.84 370.92L249.07 371.94L249.25 372.87L249.4 373.69L249.5 374.43L249.56 375.07L249.59 375.63L249.6 376.1L249.55 376.5L249.47 376.81L249.36 377.05L249.23 377.22L249.05 377.33L248.85 377.37L248.61 377.34L248.35 377.25L248.06 377.12L247.97 377.07L247.82 376.98L247.61 376.83L247.34 376.65L247.01 376.42L246.61 376.14L246.17 375.83L245.67 375.46L245.12 375.07L244.52 374.63L243.87 374.16L243.16 373.64L242.41 373.1L241.61 372.51L240.77 371.9L239.88 371.25L238.95 370.57L237.97 369.85L236.97 369.11L235.91 368.34L234.83 367.53L233.7 366.71L232.54 365.85L231.35 364.97L230.13 364.07L228.88 363.13L227.59 362.18L226.27 361.21L224.94 360.22L223.57 359.21L222.18 358.17L220.77 357.13L219.33 356.07L217.88 354.99L216.4 353.89L214.91 352.79L213.4 351.66L211.88 350.53L210.34 349.38L208.79 348.23L207.24 347.07L205.7 345.93L204.17 344.79L202.66 343.66L201.17 342.55L199.69 341.46L198.25 340.4L196.82 339.34L195.41 338.31L194.03 337.29L192.67 336.3L191.35 335.33L190.05 334.38L188.78 333.45L187.54 332.54L186.33 331.67L185.16 330.81L184.02 329.99L182.91 329.2L181.85 328.44L180.82 327.69L179.83 326.99L178.88 326.31L177.97 325.67L177.11 325.05L176.29 324.48L175.52 323.94L174.79 323.43L174.12 322.97L173.49 322.53L172.92 322.14L172.39 321.79L171.92 321.47L171.5 321.2L170.84 320.78L170.59 320.64L170.4 320.55L170.27 320.49L170.21 320.49L170.19 320.55L170.14 320.71L170.08 320.96L170.01 321.29L169.93 321.69L169.82 322.19L169.71 322.76L169.6 323.4L169.46 324.12L169.32 324.91L169.15 325.77L169 326.71L168.81 327.71L168.63 328.79L168.43 329.91L168.22 331.12L168 332.37L167.77 333.68L167.54 335.06L167.29 336.49L167.04 337.97L166.78 339.51L166.51 341.1L166.24 342.73L165.95 344.41L165.67 346.14L165.37 347.92L165.07 349.73L164.76 351.59L164.44 353.47L164.13 355.41L163.81 357.37L163.48 359.38L163.15 361.4L162.81 363.46L162.48 365.55L162.14 367.66L161.79 369.8L161.44 371.96L161.1 374.14L160.74 376.32L160.4 378.49L160.05 380.63L159.71 382.75L159.36 384.84L159.02 386.91L158.68 388.95L158.35 390.95L158.02 392.93L157.71 394.87L157.39 396.77L157.07 398.65L156.76 400.48L156.46 402.27L156.16 404.01L155.87 405.71L155.58 407.37L155.3 408.98L155.03 410.54L154.77 412.04L154.5 413.5L154.26 414.9L154.02 416.24L153.79 417.53L153.56 418.75L153.35 419.91L153.14 421.01L152.94 422.05L152.76 423.01L152.59 423.91L152.42 424.73L152.27 425.49L152.13 426.16L151.99 426.76L151.88 427.3L151.77 427.74L151.68 428.1L151.6 428.38L151.53 428.58L151.48 428.68L151.43 428.75L151.38 428.81L151.33 428.88L151.27 428.94L151.16 429.05L151.09 429.11L151.03 429.17L150.97 429.22L150.84 429.33L150.77 429.37L150.7 429.42L150.62 429.47L150.56 429.51L150.41 429.59L150.34 429.63L150.26 429.67L150.19 429.7L150.1 429.73L150.03 429.77L149.95 429.8L149.87 429.83L149.8 429.85L149.72 429.88L149.63 429.9L149.56 429.92L149.48 429.94L149.41 429.95L149.32 429.97L149.25 429.99L149.17 429.99L149.1 430L149.02 430L148.81 430.01L148.66 429.99L148.59 429.96L148.5 429.85L148.39 429.66L148.27 429.42L148.12 429.1L147.95 428.72L147.76 428.28L147.56 427.78L147.35 427.21L147.12 426.59L146.87 425.9L146.6 425.17L146.32 424.38L146.02 423.53L145.71 422.63L145.39 421.69L145.06 420.69L144.71 419.64L144.35 418.54L143.98 417.41L143.59 416.22L143.21 415L142.8 413.73L142.38 412.42L141.96 411.08L141.53 409.69L141.09 408.27L140.64 406.82L140.19 405.33L139.73 403.82L139.26 402.26L138.78 400.68L138.3 399.08L137.81 397.44L137.32 395.79L136.83 394.11L136.33 392.41L135.83 390.68L135.33 388.93L134.82 387.17L122.58 344.39L103.21 389.88L101.82 393.17L100.5 396.29L99.24 399.27L98.04 402.08L96.91 404.75L95.83 407.27L94.83 409.65L93.87 411.88L92.97 413.98L92.12 415.96L91.32 417.8L90.56 419.52L89.85 421.13L89.19 422.62L88.58 424L87.99 425.28L87.45 426.46L86.94 427.53L86.46 428.51L86.03 429.4L85.61 430.21L85.22 430.94L84.86 431.58L84.52 432.15L84.21 432.66L83.91 433.09L83.63 433.47L83.36 433.79L83.1 434.06L82.87 434.28L82.63 434.45L82.41 434.57L82.19 434.67L81.96 434.73L81.74 434.76L81.52 434.76L81.29 434.75L81.06 434.72L80.82 434.68L80.57 434.62L80.34 434.57L80.1 434.5L79.89 434.43L79.68 434.35L79.48 434.24L79.28 434.11L79.09 433.95L78.91 433.76L78.74 433.53L78.55 433.25L78.39 432.93L78.22 432.55L78.05 432.11L77.89 431.61L77.72 431.05L77.56 430.41L77.38 429.69L77.21 428.89L77.04 428L76.86 427.02L76.67 425.94L76.48 424.75L76.27 423.46L76.07 422.06L75.86 420.54L75.63 418.9L75.39 417.12L75.15 415.23L74.89 413.19L74.62 411.01L74.34 408.68L74.04 406.2L73.72 403.57L73.39 400.78L73.04 397.81L72.67 394.68L72.29 391.37L71.89 387.88L71.46 384.2L71.01 380.34L70.76 378.14L70.5 375.97L70.25 373.81L69.99 371.68L69.75 369.58L69.5 367.51L69.26 365.47L69.02 363.45L68.78 361.48L68.55 359.53L68.32 357.63L68.11 355.77L67.89 353.94L67.67 352.15L67.46 350.42L67.26 348.72L67.06 347.08L66.86 345.48L66.69 343.93L66.5 342.45L66.33 341.01L66.16 339.63L66 338.31L65.84 337.05L65.7 335.85L65.55 334.71L65.42 333.65L65.3 332.64L65.18 331.71L65.07 330.84L64.98 330.05L64.88 329.33L64.8 328.69L64.73 328.13L64.67 327.65L64.61 327.25L64.57 326.94L64.53 326.7L64.51 326.56L64.49 326.51L64.47 326.49L64.42 326.48L64.35 326.48L64.23 326.49L64.1 326.52L63.95 326.54L63.55 326.63L63.31 326.69L63.05 326.74L62.77 326.81L62.46 326.89L62.14 326.98L61.79 327.07L61.42 327.16L61.04 327.27L60.62 327.39L60.19 327.5L59.74 327.63L59.28 327.76L58.79 327.9L58.29 328.05L57.77 328.2L57.23 328.35L56.68 328.51L56.12 328.69L55.54 328.86L54.95 329.03L54.34 329.21L53.72 329.4L53.09 329.59L52.45 329.79L51.8 329.99L51.14 330.19L50.46 330.4L49.09 330.82L48.39 331.04L47.69 331.27L46.97 331.49L45.73 331.88L44.48 332.27L43.23 332.64L41.97 333.02L38.21 334.1L36.94 334.44L35.7 334.78L34.45 335.12L33.21 335.45L31.98 335.76L29.54 336.37L28.35 336.66L27.16 336.94L25.99 337.21L24.84 337.47L23.71 337.73L22.6 337.96L21.5 338.2L20.43 338.42L19.38 338.62L18.37 338.81L17.37 339L16.41 339.17L15.47 339.33L14.57 339.48L13.7 339.61L12.86 339.72L12.05 339.83L11.29 339.92L10.57 340L9.89 340.07L9.24 340.11L8.64 340.15L8.09 340.16L7.58 340.15L7.11 340.15L6.71 340.11L6.61 340.1L6.28 340.04L6.17 340.01L6.06 339.98L5.94 339.94L5.82 339.91L5.71 339.87L5.58 339.82L5.46 339.78L5.09 339.62L4.96 339.56L4.83 339.49L4.58 339.37L4.45 339.29L4.33 339.22L4.19 339.14L4.07 339.07L3.94 338.99L3.82 338.91L3.69 338.83L3.56 338.74L3.44 338.65L3.2 338.47L3.09 338.38L2.97 338.28L2.53 337.87L2.33 337.67L2.13 337.45L2.04 337.34L1.95 337.24L1.87 337.14L1.69 336.94L1.61 336.83L1.52 336.73L1.44 336.63L1.36 336.52L1.28 336.43L1.21 336.32L1.13 336.22L1.06 336.11L0.99 336.01L0.92 335.91L0.78 335.71L0.72 335.6L0.6 335.41L0.55 335.31L0.49 335.22L0.44 335.12L0.39 335.04L0.35 334.94L0.3 334.85L0.26 334.76L0.23 334.68L0.19 334.59L0.16 334.51L0.12 334.43L0.1 334.35L0.06 334.21L0.04 334.14L0.02 334.07L0.02 334.01L0 333.95L0 333.89L0.01 333.79L0.04 333.69L0.13 333.52L0.26 333.27L0.45 332.94L0.69 332.53L0.97 332.06L1.31 331.5L1.68 330.88L2.11 330.19L2.58 329.43L3.09 328.6L3.65 327.71L4.24 326.76L4.88 325.74L5.55 324.67L6.27 323.54L7.01 322.35L7.81 321.1L8.63 319.81L9.48 318.46L10.37 317.07L11.29 315.63L12.24 314.13L15.26 309.4L16.33 307.74L17.42 306.05L18.53 304.31L19.66 302.55L20.83 300.75L22.01 298.92L23.21 297.05L24.42 295.17L25.66 293.25L26.92 291.31L28.19 289.35L29.47 287.36L30.77 285.36L32.08 283.34L33.4 281.32L34.69 279.32L35.98 277.33L37.25 275.37L38.5 273.43L39.74 271.52L40.96 269.64L42.16 267.78L43.34 265.96L44.49 264.16L45.63 262.4L46.74 260.67L47.83 258.98L48.89 257.33L49.92 255.72L50.93 254.14L51.92 252.62L52.87 251.14L53.78 249.7L54.67 248.31L56.35 245.69L57.13 244.46L57.89 243.28L58.6 242.17L59.27 241.11L59.9 240.11L60.5 239.16L61.06 238.29L61.57 237.47L62.04 236.73L62.46 236.05L62.83 235.45L63.16 234.91L63.45 234.45L63.68 234.06L63.87 233.75L64 233.52L64.09 233.37L64.12 233.3L64.1 233.26L64.04 233.21L63.94 233.16L63.8 233.1L63.62 233.05L63.4 232.98L63.15 232.92L62.86 232.84L62.52 232.77L62.16 232.69L61.76 232.61L61.33 232.53L60.87 232.44L60.37 232.35L59.84 232.27L59.29 232.17L58.69 232.08L58.08 231.97L57.44 231.87L56.76 231.77L56.06 231.66L55.34 231.55L54.6 231.44L53.82 231.33L53.03 231.22L52.22 231.11L51.38 230.99L50.52 230.87L49.65 230.76L48.75 230.65L47.84 230.52L46.9 230.4L45.96 230.28L45 230.16L44.03 230.04L43.03 229.93L42.03 229.8L41.02 229.68L39.99 229.57L38.95 229.45L37.17 229.23L35.48 229.02L33.87 228.82L32.33 228.63L30.88 228.45L29.5 228.28L28.2 228.12L26.97 227.96L25.81 227.8L24.72 227.65L23.69 227.51L22.73 227.37L21.83 227.25L20.99 227.12L20.21 226.98L19.47 226.87L18.8 226.75L18.17 226.62L17.6 226.51L17.07 226.39L16.58 226.27L16.14 226.15L15.74 226.04L15.37 225.92L15.04 225.81L14.74 225.69L14.48 225.56L14.24 225.43L14.04 225.3L13.86 225.17L13.69 225.03L13.56 224.89L13.43 224.73L13.33 224.58L13.24 224.42L13.16 224.25L13.1 224.08L13.04 223.89L12.99 223.7L12.94 223.5L12.91 223.31L12.91 223.1L12.94 222.85L13 222.56L13.08 222.23L13.21 221.87L13.37 221.45L13.55 221.01L13.79 220.51L14.05 219.96L14.35 219.37L14.68 218.73L15.06 218.04L15.47 217.3L15.93 216.5L16.43 215.65L16.98 214.75L17.56 213.78L18.19 212.76L18.87 211.67L19.59 210.52L21.18 208.03L22.05 206.7L22.97 205.27L23.94 203.8L24.97 202.25L26.04 200.62L27.17 198.92L28.36 197.14L29.6 195.29L30.9 193.36L32.26 191.35L33.67 189.26L35.16 187.08L36.69 184.82L38.3 182.47L39.96 180.04L41.68 177.52L43.48 174.9L45.32 172.21L47.09 169.61L48.79 167.12L50.42 164.72L51.98 162.42L53.48 160.22L54.92 158.1L56.29 156.07L57.59 154.13L58.83 152.28L60.02 150.52L61.14 148.83L62.2 147.23L63.21 145.7L64.15 144.26L65.05 142.89L65.89 141.6L67.41 139.23L68.09 138.14L68.72 137.13L69.31 136.18L69.84 135.3L70.33 134.48L70.77 133.71L71.17 133.01L71.53 132.36L71.83 131.77L72.1 131.22L72.33 130.74L72.52 130.3L72.67 129.91L72.79 129.57L72.86 129.26L72.9 129.01L72.91 128.8L72.88 128.61L72.82 128.47L72.73 128.36L72.61 128.3L72.51 128.26L72.39 128.23L72.26 128.18L72.1 128.14L71.93 128.08L71.73 128.02L71.53 127.95L71.29 127.88L71.05 127.81L70.79 127.72L70.52 127.64L70.22 127.55L69.92 127.46L69.6 127.35L69.27 127.25L68.92 127.14L68.56 127.03L68.19 126.92L67.41 126.68L67 126.56L66.58 126.43L66.15 126.3L65.72 126.17L65.27 126.03L64.36 125.75L63.89 125.62L63.41 125.46L62.93 125.32L62.44 125.17L61.94 125.03L60.42 124.57L59.9 124.42L58.87 124.11L57.82 123.8L57.18 123.61L56.57 123.43L55.96 123.24L55.39 123.07L54.83 122.89L54.27 122.72L53.75 122.55L53.23 122.38L52.72 122.22L52.25 122.06L51.78 121.9L51.34 121.74L50.9 121.59L50.49 121.43L50.1 121.28L49.71 121.14L49.34 120.99L49 120.85L48.67 120.72L48.35 120.57L48.05 120.44L47.78 120.31L47.51 120.18L47.25 120.06L47.02 119.93L46.8 119.81L46.61 119.69L46.42 119.58L46.25 119.46L46.09 119.35L45.95 119.23L45.83 119.13L45.72 119.02L45.63 118.92L45.55 118.82L45.49 118.71L45.45 118.62L45.42 118.53L45.41 118.43L45.41 118.34L45.54 117.82L45.84 117.09L46.31 116.15L46.94 115.01L47.72 113.69L48.63 112.19L49.69 110.52L50.88 108.69L52.18 106.73L53.61 104.62L55.13 102.37L56.77 100.02L58.48 97.55L60.29 94.98L62.18 92.33L64.15 89.59L66.17 86.79L68.25 83.92L70.38 81.01L72.55 78.06L74.76 75.07L77 72.06L79.26 69.04L81.53 66.02L83.81 63.01L86.09 60.02L88.36 57.05L90.62 54.12L92.85 51.24L95.06 48.41L97.23 45.65L99.35 42.97L101.44 40.37L103.45 37.87L105.4 35.47L109.08 31.03L110.81 29.01L112.42 27.14L113.95 25.42L114.36 24.94L114.83 24.44L115.32 23.88L115.85 23.3L116.42 22.68L117.01 22.03L117.63 21.36L118.28 20.66L118.95 19.94L119.64 19.2L120.35 18.44L121.08 17.66L121.81 16.87L122.56 16.08L123.32 15.27L124.86 13.64L125.63 12.84L126.4 12.03L127.16 11.22L127.93 10.43L128.68 9.64L129.42 8.87L130.16 8.11L130.87 7.37L131.57 6.65L132.24 5.95L132.9 5.28L133.53 4.63L134.14 4.02L134.71 3.44L135.25 2.89L135.75 2.39L136.23 1.92L136.66 1.5L137.05 1.12L137.4 0.8L137.7 0.52L137.96 0.28L138.16 0.11L138.21 0.08L138.27 0.04L138.35 0.02L138.44 0.01L138.54 0L138.65 0L138.77 0.01ZM138.92 26.35L138.51 27.08L137.98 28.02L137.34 29.2L136.58 30.58L135.74 32.16L134.79 33.91L133.78 35.84L132.67 37.91L131.5 40.12L130.27 42.47L128.97 44.92L127.63 47.46L126.25 50.09L124.84 52.79L123.39 55.54L121.93 58.34L120.46 61.17L118.97 64.02L117.5 66.86L116.02 69.68L114.57 72.48L113.14 75.25L111.73 77.96L110.37 80.6L109.06 83.15L107.79 85.62L106.58 87.97L105.44 90.2L104.38 92.29L103.39 94.24L102.49 96.02L101.68 97.62L100.98 99.03L100.39 100.23L99.92 101.22L99.57 101.96L99.34 102.47L99.26 102.72L99.26 102.75L99.27 102.79L99.29 102.84L99.33 102.89L99.36 102.95L99.42 103L99.48 103.08L99.63 103.24L99.72 103.32L99.81 103.41L99.92 103.51L100.03 103.6L100.15 103.72L100.28 103.82L100.41 103.93L100.56 104.05L100.7 104.18L100.86 104.29L101.02 104.43L101.2 104.56L101.37 104.7L101.55 104.83L101.73 104.98L101.93 105.12L102.14 105.26L102.34 105.41L102.77 105.72L103 105.87L103.22 106.04L103.45 106.19L103.69 106.36L103.93 106.52L104.17 106.68L104.42 106.85L104.67 107.02L104.93 107.18L105.19 107.35L105.45 107.52L105.7 107.69L105.95 107.85L106.2 108.02L106.69 108.35L107.63 109.02L107.85 109.18L108.06 109.33L108.28 109.5L108.49 109.65L108.7 109.81L109.09 110.11L109.28 110.26L109.47 110.41L109.65 110.55L110.15 110.96L110.44 111.21L110.58 111.34L110.71 111.45L110.95 111.68L111.15 111.88L111.24 111.98L111.32 112.07L111.45 112.23L111.5 112.31L111.55 112.37L111.57 112.44L111.59 112.49L111.61 112.54L111.61 112.58L111.6 112.66L111.55 112.79L111.48 112.97L111.39 113.19L111.27 113.47L111.13 113.8L110.98 114.16L110.79 114.59L110.58 115.05L110.36 115.55L110.11 116.09L109.85 116.69L109.56 117.31L109.26 117.99L108.93 118.69L108.58 119.43L108.23 120.21L107.85 121.03L107.45 121.87L107.05 122.75L106.62 123.66L106.18 124.6L105.72 125.57L105.26 126.56L104.77 127.59L104.28 128.64L103.77 129.72L103.24 130.82L102.71 131.95L102.17 133.09L101.61 134.26L101.05 135.44L100.48 136.65L99.9 137.87L99.3 139.11L98.7 140.35L98.09 141.63L97.49 142.91L96.86 144.2L96.24 145.51L94.98 148.11L94.36 149.39L93.75 150.66L93.14 151.93L92.54 153.17L91.94 154.41L91.35 155.62L90.78 156.83L90.2 158L89.64 159.16L89.08 160.31L88.54 161.43L88.02 162.52L87.49 163.6L86.98 164.64L86.49 165.67L86 166.66L85.53 167.63L85.08 168.57L84.64 169.47L84.21 170.34L83.8 171.19L83.41 171.99L83.03 172.76L82.68 173.5L82.33 174.2L82.01 174.86L81.71 175.48L81.42 176.06L81.17 176.6L80.92 177.1L80.7 177.55L80.51 177.96L80.33 178.32L80.18 178.63L80.06 178.9L79.96 179.12L79.88 179.28L79.83 179.39L79.71 179.59L79.63 179.8L79.56 179.99L79.51 180.18L79.47 180.35L79.47 180.53L79.48 180.7L79.5 180.87L79.56 181.03L79.64 181.19L79.74 181.34L79.87 181.48L80.02 181.63L80.21 181.77L80.42 181.91L80.66 182.05L80.93 182.19L81.23 182.32L81.57 182.44L81.94 182.57L82.33 182.7L82.76 182.83L83.23 182.95L83.74 183.08L84.28 183.2L84.87 183.33L85.49 183.46L86.15 183.58L86.85 183.71L87.6 183.84L88.38 183.98L89.22 184.1L90.1 184.24L91.02 184.37L91.98 184.51L93 184.66L94.06 184.8L95.17 184.96L96.33 185.11L97.54 185.27L98.59 185.42L99.1 185.49L99.61 185.58L100.11 185.65L100.62 185.73L101.11 185.81L102.08 185.97L102.56 186.04L103.48 186.2L104.37 186.35L104.81 186.44L105.64 186.58L106.04 186.67L106.42 186.74L106.8 186.81L107.16 186.88L107.52 186.96L107.86 187.03L108.19 187.1L108.5 187.17L108.8 187.24L109.08 187.31L109.34 187.37L109.6 187.44L109.82 187.5L110.05 187.56L110.24 187.62L110.43 187.68L110.59 187.74L110.74 187.79L110.86 187.85L110.98 187.9L111.06 187.95L111.13 187.99L111.17 188.04L111.2 188.11L111.18 188.24L111.13 188.44L111.06 188.68L110.95 188.99L110.82 189.34L110.65 189.75L110.45 190.22L110.24 190.73L109.99 191.29L109.7 191.9L109.4 192.55L109.08 193.26L108.72 194L108.34 194.79L107.94 195.62L107.51 196.49L107.06 197.4L106.6 198.35L106.11 199.34L105.6 200.36L105.06 201.41L104.51 202.5L103.94 203.63L103.35 204.77L102.74 205.96L102.12 207.17L101.47 208.41L100.82 209.67L100.15 210.96L99.46 212.27L98.75 213.6L98.04 214.95L97.31 216.33L96.57 217.73L95.82 219.14L95.06 220.56L94.28 222L93.5 223.46L92.71 224.92L91.92 226.4L91.14 227.85L90.38 229.3L89.61 230.73L88.86 232.15L88.12 233.54L87.39 234.91L86.68 236.26L85.98 237.59L85.28 238.89L84.6 240.17L83.93 241.42L83.28 242.64L82.65 243.84L82.03 245.02L81.43 246.15L80.85 247.25L80.28 248.32L79.73 249.36L79.2 250.36L78.7 251.32L78.21 252.25L77.75 253.13L77.31 253.98L76.89 254.78L76.49 255.54L76.12 256.27L75.77 256.94L75.45 257.57L75.15 258.15L74.88 258.67L74.64 259.16L74.42 259.59L74.24 259.97L74.09 260.3L73.96 260.57L73.87 260.78L73.81 260.94L73.78 261.04L73.77 261.08L73.79 261.09L73.83 261.1L73.89 261.09L73.96 261.09L74.06 261.08L74.16 261.06L74.29 261.04L74.43 261.02L74.59 260.99L74.76 260.96L74.95 260.92L75.15 260.88L75.38 260.84L75.61 260.79L75.86 260.74L76.12 260.68L76.4 260.62L76.68 260.56L76.98 260.5L77.29 260.43L77.95 260.28L78.3 260.21L78.66 260.13L79.4 259.96L79.79 259.87L80.6 259.7L81.01 259.6L81.44 259.5L81.86 259.41L82.31 259.31L82.75 259.21L83.2 259.11L84.13 258.9L85.55 258.57L86.46 258.35L87.32 258.15L88.15 257.96L88.94 257.77L89.71 257.61L90.45 257.45L91.14 257.31L91.81 257.17L92.45 257.06L93.05 256.95L93.63 256.86L94.18 256.78L94.7 256.71L95.19 256.67L95.66 256.63L96.09 256.61L96.51 256.59L96.89 256.59L97.25 256.61L97.59 256.65L97.91 256.69L98.19 256.74L98.46 256.82L98.71 256.9L98.93 257L99.13 257.11L99.32 257.24L99.48 257.39L99.62 257.54L99.75 257.71L99.85 257.9L99.94 258.1L100.02 258.31L100.07 258.55L100.12 258.79L100.14 259.05L100.15 259.32L100.15 259.61L100.13 259.92L100.11 260.24L100.09 260.58L100.1 261.11L100.11 261.84L100.13 262.74L100.18 263.82L100.25 265.04L100.32 266.4L100.41 267.91L100.51 269.54L100.61 271.29L100.73 273.13L100.86 275.08L101 277.1L101.14 279.2L101.29 281.36L101.44 283.58L101.61 285.83L101.77 288.11L102.11 292.73L102.29 295.04L102.46 297.34L102.63 299.62L102.81 301.87L102.99 304.08L103.17 306.23L103.33 308.32L103.5 310.34L103.66 312.26L103.82 314.11L103.97 315.84L104.12 317.46L104.25 318.95L104.38 320.3L104.51 321.51L104.62 322.57L104.71 323.46L104.8 324.16L104.88 324.68L104.94 325L105.01 325.15L105.08 325.23L105.17 325.27L105.26 325.24L105.38 325.17L105.51 325.02L105.65 324.81L105.81 324.55L105.98 324.22L106.16 323.84L106.37 323.39L106.58 322.88L106.82 322.31L107.06 321.67L107.33 320.97L107.61 320.21L107.9 319.38L108.21 318.48L108.55 317.52L108.88 316.49L109.25 315.41L109.62 314.24L110.01 313.01L110.43 311.72L110.86 310.35L111.3 308.91L111.77 307.42L112.25 305.84L112.74 304.19L113.26 302.47L113.79 300.69L114.35 298.83L114.92 296.89L115.51 294.89L116.12 292.8L116.75 290.65L117.4 288.42L118.06 286.12L118.74 283.73L119.44 281.27L119.92 279.66L120.36 278.11L120.78 276.65L121.18 275.24L121.57 273.92L121.95 272.66L122.29 271.47L122.63 270.34L122.96 269.28L123.26 268.27L123.55 267.33L123.83 266.44L124.1 265.61L124.36 264.83L124.6 264.11L124.83 263.44L125.05 262.81L125.27 262.24L125.47 261.71L125.67 261.22L125.86 260.77L126.05 260.36L126.23 260L126.4 259.66L126.57 259.37L126.74 259.11L126.91 258.88L127.07 258.68L127.23 258.5L127.39 258.36L127.56 258.24L127.72 258.13L127.88 258.05L128.21 257.94L128.38 257.92L128.57 257.91L128.75 257.91L129.13 257.93L129.32 257.96L129.49 257.99L129.67 258.04L129.83 258.08L130 258.15L130.16 258.24L130.32 258.34L130.47 258.44L130.62 258.58L130.77 258.73L130.92 258.89L131.06 259.09L131.21 259.29L131.34 259.53L131.49 259.8L131.63 260.08L131.76 260.4L131.91 260.75L132.05 261.11L132.2 261.52L132.34 261.96L132.5 262.43L132.65 262.93L132.81 263.46L132.97 264.04L133.14 264.65L133.31 265.31L133.48 266.01L133.66 266.74L133.84 267.51L134.04 268.34L134.24 269.21L134.44 270.13L134.66 271.09L134.88 272.11L135.11 273.17L135.35 274.28L135.6 275.45L135.87 276.67L136.13 277.94L136.3 278.75L136.48 279.56L136.81 281.14L136.98 281.92L137.14 282.69L137.47 284.21L137.62 284.95L137.76 285.68L137.92 286.4L138.06 287.11L138.2 287.8L138.33 288.48L138.48 289.15L138.6 289.79L138.73 290.43L138.85 291.05L138.97 291.64L139.08 292.23L139.19 292.79L139.29 293.34L139.39 293.85L139.49 294.35L139.58 294.83L139.66 295.29L139.73 295.72L139.81 296.14L139.87 296.52L139.93 296.88L139.99 297.22L140.05 297.54L140.09 297.81L140.12 298.07L140.16 298.3L140.18 298.5L140.2 298.67L140.21 298.8L140.21 298.91L140.2 299.05L140.2 299.11L140.2 299.17L140.21 299.41L140.21 299.49L140.24 299.61L140.25 299.67L140.27 299.79L140.29 299.87L140.31 299.93L140.33 299.99L140.35 300.05L140.37 300.11L140.44 300.29L140.47 300.35L140.49 300.41L140.51 300.46L140.55 300.53L140.57 300.58L140.61 300.63L140.63 300.69L140.7 300.79L140.74 300.84L140.76 300.89L140.94 301.11L140.97 301.14L141.01 301.19L141.05 301.22L141.1 301.23L141.16 301.19L141.22 301.12L141.29 301L141.38 300.83L141.47 300.62L141.57 300.38L141.67 300.09L141.77 299.76L141.89 299.4L142.02 298.99L142.14 298.55L142.28 298.07L142.42 297.57L142.56 297.02L142.72 296.44L142.87 295.83L143.03 295.19L143.2 294.52L143.36 293.81L143.54 293.08L143.71 292.32L143.9 291.54L144.08 290.72L144.26 289.89L144.45 289.02L144.64 288.14L144.84 287.22L145.04 286.29L145.24 285.33L145.44 284.36L145.64 283.37L145.85 282.36L146.05 281.33L146.25 280.28L146.47 279.22L146.67 278.14L146.88 277.06L147.09 275.96L147.3 274.83L147.92 271.49L148.33 269.3L148.54 268.21L148.75 267.14L149.15 265.03L149.35 264L149.75 261.97L149.93 260.98L150.13 260.01L150.32 259.06L150.49 258.12L150.68 257.21L150.86 256.31L151.03 255.44L151.2 254.6L151.36 253.77L151.53 252.97L151.69 252.21L151.84 251.46L151.98 250.74L152.13 250.05L152.27 249.39L152.4 248.77L152.53 248.17L152.64 247.61L152.76 247.08L152.87 246.59L152.97 246.14L153.07 245.71L153.16 245.33L153.23 244.99L153.3 244.68L153.37 244.42L153.43 244.2L153.48 244.03L153.56 243.78L153.63 243.55L153.71 243.34L153.79 243.14L153.88 242.96L153.96 242.8L154.06 242.67L154.16 242.55L154.27 242.46L154.4 242.4L154.54 242.36L154.7 242.36L154.86 242.37L155.05 242.42L155.25 242.51L155.47 242.62L155.72 242.77L155.99 242.95L156.29 243.18L156.6 243.43L156.95 243.73L157.33 244.07L157.74 244.46L158.18 244.87L158.65 245.35L159.16 245.86L159.72 246.42L160.3 247.03L160.92 247.69L161.59 248.4L162.3 249.16L163.04 249.97L163.85 250.84L164.7 251.77L165.59 252.75L166.52 253.8L167.52 254.9L168.57 256.05L169.67 257.27L170.83 258.56L172.82 260.82L173.49 261.57L174.15 262.32L174.81 263.05L175.48 263.8L176.12 264.53L176.78 265.25L177.43 265.97L178.07 266.69L179.33 268.09L179.95 268.78L180.56 269.46L181.17 270.13L181.76 270.78L182.92 272.05L183.48 272.66L184.02 273.26L184.56 273.85L185.07 274.42L185.57 274.97L186.07 275.51L186.54 276.02L187 276.52L187.44 277L187.86 277.46L188.26 277.89L188.64 278.3L189.01 278.69L189.36 279.06L189.67 279.41L189.97 279.72L190.24 280.01L190.5 280.28L190.72 280.52L190.93 280.72L191.1 280.91L195.34 285.24L192.91 277.76L192.79 277.42L192.65 277.02L192.49 276.57L192.3 276.06L192.1 275.49L191.87 274.87L191.63 274.19L191.36 273.46L191.09 272.68L190.78 271.85L190.47 270.97L190.13 270.05L189.78 269.09L189.42 268.08L189.03 267.03L188.64 265.93L188.23 264.81L187.8 263.64L187.36 262.44L186.92 261.21L186.45 259.94L185.98 258.65L185.5 257.32L185 255.97L184.5 254.59L183.98 253.19L183.46 251.75L182.93 250.31L182.38 248.85L181.83 247.35L181.28 245.85L180.72 244.33L180.15 242.8L179.58 241.25L178.42 238.13L177.83 236.55L177.24 234.98L176.65 233.39L176.06 231.8L175.47 230.22L174.9 228.65L174.33 227.1L173.76 225.57L173.21 224.05L172.67 222.55L172.14 221.06L171.62 219.61L171.1 218.17L170.6 216.76L170.11 215.37L169.63 214.01L169.17 212.69L168.71 211.38L168.27 210.11L167.84 208.87L167.42 207.66L167.02 206.49L166.64 205.35L166.26 204.26L165.91 203.19L165.56 202.17L165.25 201.19L164.94 200.26L164.65 199.36L164.38 198.52L164.12 197.72L163.89 196.96L163.67 196.25L163.48 195.6L163.3 195L163.15 194.45L163.01 193.95L162.9 193.52L162.8 193.13L162.74 192.81L162.69 192.54L162.67 192.34L162.66 192.19L162.69 192.12L162.73 192.06L162.79 192.01L162.86 191.94L162.95 191.89L163.04 191.84L163.16 191.78L163.27 191.74L163.41 191.68L163.56 191.63L163.72 191.58L163.89 191.54L164.07 191.49L164.27 191.45L164.47 191.4L164.68 191.36L164.91 191.31L165.13 191.28L165.38 191.23L165.62 191.2L165.89 191.17L166.15 191.12L166.7 191.06L167 191.03L167.29 191.01L167.9 190.96L168.21 190.94L168.54 190.92L168.86 190.9L169.18 190.89L169.52 190.87L169.86 190.86L170.2 190.86L170.55 190.84L170.9 190.84L171.25 190.84L171.6 190.84L172.32 190.86L172.69 190.84L173.04 190.84L173.4 190.84L173.75 190.83L174.1 190.82L174.78 190.79L175.45 190.76L176.1 190.73L176.73 190.7L177.03 190.67L177.62 190.63L177.89 190.6L178.18 190.58L178.44 190.54L178.7 190.52L178.95 190.49L179.19 190.46L179.43 190.43L179.66 190.4L179.88 190.36L180.08 190.34L180.28 190.31L180.47 190.27L180.65 190.23L180.81 190.2L180.96 190.17L181.11 190.13L181.36 190.06L181.46 190.02L181.56 189.99L181.64 189.95L181.7 189.91L181.76 189.88L181.8 189.84L181.83 189.78L181.83 189.68L181.81 189.54L181.78 189.36L181.74 189.13L181.66 188.87L181.58 188.57L181.48 188.24L181.36 187.86L181.22 187.46L181.07 187.02L180.9 186.54L180.71 186.04L180.52 185.49L180.31 184.92L180.08 184.32L179.83 183.69L179.58 183.03L179.31 182.35L179.04 181.64L178.74 180.89L178.43 180.14L178.12 179.35L177.78 178.54L177.45 177.7L177.1 176.85L176.73 175.98L176.36 175.08L175.98 174.17L175.58 173.24L175.18 172.29L174.77 171.34L174.36 170.36L173.93 169.37L173.49 168.36L173.06 167.33L172.6 166.31L172.15 165.27L170.76 162.11L170.31 161.05L169.42 158.99L168.98 157.98L168.56 156.98L168.14 155.99L167.73 155.02L167.32 154.07L166.93 153.13L166.53 152.21L166.16 151.31L165.79 150.42L165.42 149.56L165.08 148.72L164.73 147.9L164.4 147.11L164.09 146.33L163.78 145.59L163.48 144.86L163.21 144.16L162.93 143.5L162.68 142.85L162.43 142.24L162.2 141.65L161.98 141.09L161.78 140.58L161.59 140.09L161.41 139.63L161.25 139.2L161.11 138.81L160.99 138.46L160.87 138.14L160.78 137.86L160.71 137.62L160.65 137.41L160.6 137.25L160.58 137.12L160.57 137.04L160.58 137L160.61 136.99L160.66 136.96L160.74 136.94L160.83 136.91L160.94 136.88L161.22 136.82L161.39 136.78L161.57 136.75L161.77 136.7L161.99 136.66L162.22 136.61L162.48 136.57L162.73 136.52L163.31 136.42L163.61 136.36L163.93 136.31L164.27 136.26L164.62 136.19L164.97 136.14L165.34 136.08L165.72 136.02L166.12 135.95L166.52 135.89L167.36 135.76L167.79 135.69L168.23 135.63L168.67 135.56L169.13 135.5L169.59 135.43L170.06 135.36L170.54 135.3L172.01 135.09L173.01 134.95L173.52 134.89L174.03 134.83L174.53 134.77L175.03 134.7L175.52 134.64L176.48 134.5L177.42 134.36L178.32 134.21L178.76 134.14L179.19 134.06L180.03 133.91L180.43 133.83L180.82 133.75L181.2 133.67L181.57 133.59L181.93 133.51L182.27 133.43L182.61 133.35L182.93 133.27L183.53 133.11L183.81 133.04L184.07 132.96L184.32 132.88L184.56 132.81L184.78 132.74L184.98 132.66L185.16 132.59L185.32 132.53L185.48 132.46L185.61 132.4L185.73 132.33L185.82 132.27L185.89 132.21L185.95 132.15L185.98 132.1L186 132.04L185.99 131.96L185.96 131.83L185.91 131.65L185.83 131.42L185.75 131.15L185.64 130.84L185.52 130.49L185.38 130.09L185.22 129.65L185.05 129.17L184.87 128.65L184.66 128.09L184.45 127.51L184.22 126.87L183.98 126.21L183.72 125.51L183.44 124.78L183.16 124.01L182.86 123.23L182.55 122.4L181.89 120.66L181.55 119.75L181.19 118.82L180.83 117.87L180.45 116.88L180.08 115.87L179.68 114.84L179.28 113.79L178.87 112.72L178.45 111.63L178.02 110.52L177.59 109.39L177.15 108.25L176.7 107.1L176.25 105.92L175.8 104.74L175.33 103.54L174.4 101.11L173.91 99.9L173.43 98.7L172.97 97.51L172.5 96.34L172.04 95.17L171.59 94.03L171.15 92.9L170.71 91.78L170.27 90.68L169.86 89.6L169.44 88.54L169.04 87.5L168.64 86.48L168.27 85.49L167.89 84.52L167.52 83.57L167.18 82.65L166.83 81.75L166.5 80.89L166.18 80.05L165.88 79.24L165.04 77L164.78 76.32L164.54 75.68L164.31 75.07L164.1 74.5L163.91 73.96L163.73 73.47L163.57 73.01L163.42 72.59L163.29 72.22L163.17 71.89L163.07 71.6L162.98 71.36L162.93 71.16L162.85 70.9L162.85 70.85L162.86 70.82L162.88 70.78L162.92 70.74L162.97 70.68L163.17 70.51L163.27 70.44L163.38 70.37L163.49 70.29L163.62 70.22L163.76 70.13L164.06 69.94L164.23 69.85L164.4 69.75L164.58 69.64L164.77 69.54L164.98 69.43L165.19 69.32L165.4 69.21L165.63 69.09L165.86 68.97L166.09 68.85L166.34 68.72L166.85 68.47L167.11 68.34L167.94 67.95L168.22 67.81L168.51 67.67L168.81 67.53L169.1 67.4L170.02 66.99L170.34 66.85L170.64 66.71L171.29 66.44L171.61 66.3L172.53 65.88L173.12 65.6L173.41 65.47L173.69 65.33L173.97 65.19L174.5 64.92L174.76 64.79L175.25 64.52L175.48 64.39L175.71 64.27L176.13 64.01L176.34 63.89L176.53 63.77L176.72 63.65L176.89 63.54L177.21 63.31L177.36 63.2L177.49 63.1L177.62 63L177.73 62.9L177.93 62.72L178.01 62.64L178.08 62.56L178.13 62.47L178.17 62.4L178.23 62.27L178.22 62.21L178.22 62.16L178.11 61.92L177.87 61.57L177.51 61.11L177.02 60.54L176.43 59.88L175.73 59.13L174.95 58.29L174.07 57.39L173.09 56.4L172.06 55.36L170.95 54.24L169.77 53.09L168.54 51.89L167.26 50.64L165.95 49.37L164.59 48.07L163.21 46.74L161.81 45.41L160.38 44.07L158.97 42.73L157.54 41.39L156.11 40.07L154.71 38.76L153.31 37.49L151.96 36.24L150.62 35.03L149.34 33.86L148.09 32.75L146.9 31.69L145.78 30.7L144.72 29.77L143.74 28.92L142.83 28.16L142.02 27.48L141.29 26.91L140.67 26.43L140.16 26.06L139.77 25.81L139.49 25.68L139.35 25.68L139.21 25.88L138.92 26.35Z" id="b1sh9gc82E"></path><path d="M138.77 0.01L138.91 0.04L139.06 0.06L139.21 0.1L139.38 0.15L139.55 0.2L139.74 0.26L139.93 0.33L140.14 0.4L140.35 0.48L140.56 0.57L140.79 0.67L141.03 0.76L141.27 0.88L141.52 0.99L141.78 1.11L142.04 1.23L142.32 1.37L142.58 1.51L142.87 1.65L143.16 1.8L143.45 1.95L144.04 2.28L144.36 2.44L144.66 2.61L145.29 2.98L145.93 3.35L146.25 3.55L146.58 3.74L146.9 3.95L147.23 4.15L149.08 5.34L151.02 6.63L153.07 8.01L155.21 9.47L157.43 11.02L159.73 12.63L162.09 14.31L164.51 16.05L166.98 17.84L169.49 19.68L172.04 21.56L174.61 23.48L177.2 25.42L179.8 27.38L182.41 29.36L185.01 31.35L187.59 33.34L190.15 35.32L192.69 37.29L195.19 39.26L197.64 41.19L200.03 43.1L202.38 44.98L204.64 46.81L206.83 48.59L208.94 50.32L210.95 51.99L212.86 53.59L214.67 55.12L216.35 56.57L217.91 57.93L219.33 59.21L220.63 60.38L221.76 61.46L222.74 62.41L223.55 63.26L224.2 63.97L224.66 64.57L224.94 65.02L225 65.34L224.97 65.56L224.92 65.79L224.84 66.02L224.75 66.25L224.63 66.48L224.5 66.72L224.34 66.96L224.15 67.2L223.95 67.43L223.72 67.67L223.48 67.92L223.2 68.16L222.9 68.41L222.57 68.67L222.22 68.92L221.84 69.19L221.44 69.46L221.02 69.72L220.57 70L220.09 70.27L219.58 70.56L219.05 70.84L218.48 71.14L217.89 71.43L217.27 71.73L216.62 72.04L215.94 72.36L215.23 72.67L214.5 73L213.72 73.33L212.92 73.67L212.09 74.02L211.21 74.37L210.32 74.73L209.39 75.11L208.42 75.48L207.43 75.87L206.4 76.26L205.33 76.66L204.23 77.07L189.74 82.51L193.6 89.07L195.25 91.94L196.89 94.8L198.52 97.65L200.14 100.49L201.75 103.32L203.34 106.13L204.91 108.92L206.46 111.68L207.98 114.42L209.49 117.13L210.96 119.79L212.41 122.42L213.83 125L215.22 127.55L216.57 130.04L217.89 132.48L219.17 134.87L220.42 137.19L221.62 139.45L222.78 141.64L223.89 143.76L224.96 145.8L225.98 147.78L226.96 149.67L227.88 151.47L228.75 153.19L229.56 154.81L230.31 156.35L231 157.78L231.64 159.11L232.21 160.33L232.72 161.45L233.17 162.45L233.54 163.34L233.84 164.11L234.07 164.76L234.23 165.28L234.31 165.66L234.31 165.92L234.24 166.03L234.16 166.06L234.04 166.1L233.92 166.14L233.76 166.18L233.59 166.22L233.39 166.27L233.18 166.3L232.95 166.35L232.69 166.4L232.43 166.45L232.13 166.5L231.82 166.55L231.5 166.6L231.16 166.65L230.8 166.72L230.43 166.77L230.04 166.83L229.64 166.89L229.23 166.94L228.8 167L228.36 167.06L227.9 167.13L226.96 167.25L226.47 167.31L225.97 167.37L225.46 167.43L224.95 167.49L223.89 167.62L223.35 167.68L222.8 167.75L221.68 167.87L220.54 167.99L218.8 168.17L218.21 168.23L217.62 168.3L217.04 168.37L216.47 168.43L215.9 168.5L215.33 168.56L214.23 168.69L213.69 168.75L213.16 168.81L212.64 168.86L212.14 168.92L211.64 168.98L211.15 169.04L210.67 169.09L210.2 169.14L209.75 169.19L209.31 169.23L208.88 169.28L208.46 169.33L208.07 169.38L207.68 169.42L207.3 169.46L206.95 169.5L206.61 169.53L206.29 169.57L205.98 169.61L205.69 169.65L205.42 169.68L205.17 169.7L204.93 169.74L204.72 169.77L204.51 169.79L204.34 169.81L204.19 169.83L204.05 169.85L203.94 169.87L203.85 169.89L203.78 169.9L203.73 169.91L203.7 169.92L203.7 169.96L203.74 170.07L203.8 170.22L203.9 170.45L204.03 170.73L204.2 171.07L204.39 171.46L204.62 171.91L204.87 172.41L205.16 172.96L205.47 173.57L205.82 174.23L206.19 174.93L206.58 175.68L207 176.48L207.45 177.32L207.92 178.21L208.42 179.14L208.94 180.11L209.48 181.12L210.04 182.17L210.62 183.25L211.23 184.38L211.85 185.53L212.5 186.72L213.15 187.95L213.84 189.2L214.52 190.49L215.24 191.8L215.97 193.14L216.72 194.51L217.46 195.9L218.24 197.31L219.03 198.75L219.82 200.21L220.63 201.7L221.44 203.19L222.27 204.71L223.12 206.24L224.8 209.33L225.65 210.85L226.47 212.36L227.29 213.85L228.1 215.32L228.89 216.78L229.68 218.21L230.46 219.62L231.21 221.01L231.96 222.37L232.68 223.71L233.4 225.02L234.09 226.3L234.77 227.55L235.43 228.77L236.08 229.96L236.7 231.11L237.31 232.24L237.89 233.31L238.45 234.37L238.99 235.38L239.51 236.35L240 237.28L240.47 238.16L240.93 239.01L241.35 239.81L241.74 240.57L242.11 241.27L242.45 241.94L242.77 242.54L243.05 243.11L243.3 243.61L243.53 244.06L243.72 244.46L243.89 244.81L244.02 245.1L244.11 245.33L244.18 245.51L244.22 245.61L244.21 245.66L244.11 245.7L244.01 245.71L243.89 245.73L243.74 245.74L243.57 245.75L243.36 245.77L243.13 245.78L242.88 245.79L242.61 245.8L242.3 245.82L241.98 245.83L241.64 245.83L241.26 245.84L240.88 245.85L240.47 245.86L240.04 245.87L239.58 245.87L239.12 245.88L238.63 245.88L238.12 245.89L237.6 245.88L237.06 245.88L236.5 245.89L235.93 245.89L235.34 245.89L234.74 245.87L234.12 245.88L233.5 245.87L232.86 245.87L232.2 245.86L230.86 245.84L229.47 245.81L228.77 245.81L227.33 245.78L225.86 245.74L207.81 245.46L229.03 308.59L230.48 312.93L231.89 317.08L233.23 321.08L234.5 324.9L235.73 328.56L236.89 332.06L237.99 335.39L239.04 338.58L240.03 341.61L240.97 344.48L241.85 347.22L242.68 349.81L243.46 352.27L244.18 354.59L244.87 356.77L245.49 358.82L246.07 360.75L246.6 362.55L247.09 364.23L247.53 365.79L247.92 367.24L248.27 368.57L248.58 369.8L248.84 370.92L249.07 371.94L249.25 372.87L249.4 373.69L249.5 374.43L249.56 375.07L249.59 375.63L249.6 376.1L249.55 376.5L249.47 376.81L249.36 377.05L249.23 377.22L249.05 377.33L248.85 377.37L248.61 377.34L248.35 377.25L248.06 377.12L247.97 377.07L247.82 376.98L247.61 376.83L247.34 376.65L247.01 376.42L246.61 376.14L246.17 375.83L245.67 375.46L245.12 375.07L244.52 374.63L243.87 374.16L243.16 373.64L242.41 373.1L241.61 372.51L240.77 371.9L239.88 371.25L238.95 370.57L237.97 369.85L236.97 369.11L235.91 368.34L234.83 367.53L233.7 366.71L232.54 365.85L231.35 364.97L230.13 364.07L228.88 363.13L227.59 362.18L226.27 361.21L224.94 360.22L223.57 359.21L222.18 358.17L220.77 357.13L219.33 356.07L217.88 354.99L216.4 353.89L214.91 352.79L213.4 351.66L211.88 350.53L210.34 349.38L208.79 348.23L207.24 347.07L205.7 345.93L204.17 344.79L202.66 343.66L201.17 342.55L199.69 341.46L198.25 340.4L196.82 339.34L195.41 338.31L194.03 337.29L192.67 336.3L191.35 335.33L190.05 334.38L188.78 333.45L187.54 332.54L186.33 331.67L185.16 330.81L184.02 329.99L182.91 329.2L181.85 328.44L180.82 327.69L179.83 326.99L178.88 326.31L177.97 325.67L177.11 325.05L176.29 324.48L175.52 323.94L174.79 323.43L174.12 322.97L173.49 322.53L172.92 322.14L172.39 321.79L171.92 321.47L171.5 321.2L170.84 320.78L170.59 320.64L170.4 320.55L170.27 320.49L170.21 320.49L170.19 320.55L170.14 320.71L170.08 320.96L170.01 321.29L169.93 321.69L169.82 322.19L169.71 322.76L169.6 323.4L169.46 324.12L169.32 324.91L169.15 325.77L169 326.71L168.81 327.71L168.63 328.79L168.43 329.91L168.22 331.12L168 332.37L167.77 333.68L167.54 335.06L167.29 336.49L167.04 337.97L166.78 339.51L166.51 341.1L166.24 342.73L165.95 344.41L165.67 346.14L165.37 347.92L165.07 349.73L164.76 351.59L164.44 353.47L164.13 355.41L163.81 357.37L163.48 359.38L163.15 361.4L162.81 363.46L162.48 365.55L162.14 367.66L161.79 369.8L161.44 371.96L161.1 374.14L160.74 376.32L160.4 378.49L160.05 380.63L159.71 382.75L159.36 384.84L159.02 386.91L158.68 388.95L158.35 390.95L158.02 392.93L157.71 394.87L157.39 396.77L157.07 398.65L156.76 400.48L156.46 402.27L156.16 404.01L155.87 405.71L155.58 407.37L155.3 408.98L155.03 410.54L154.77 412.04L154.5 413.5L154.26 414.9L154.02 416.24L153.79 417.53L153.56 418.75L153.35 419.91L153.14 421.01L152.94 422.05L152.76 423.01L152.59 423.91L152.42 424.73L152.27 425.49L152.13 426.16L151.99 426.76L151.88 427.3L151.77 427.74L151.68 428.1L151.6 428.38L151.53 428.58L151.48 428.68L151.43 428.75L151.38 428.81L151.33 428.88L151.27 428.94L151.16 429.05L151.09 429.11L151.03 429.17L150.97 429.22L150.84 429.33L150.77 429.37L150.7 429.42L150.62 429.47L150.56 429.51L150.41 429.59L150.34 429.63L150.26 429.67L150.19 429.7L150.1 429.73L150.03 429.77L149.95 429.8L149.87 429.83L149.8 429.85L149.72 429.88L149.63 429.9L149.56 429.92L149.48 429.94L149.41 429.95L149.32 429.97L149.25 429.99L149.17 429.99L149.1 430L149.02 430L148.81 430.01L148.66 429.99L148.59 429.96L148.5 429.85L148.39 429.66L148.27 429.42L148.12 429.1L147.95 428.72L147.76 428.28L147.56 427.78L147.35 427.21L147.12 426.59L146.87 425.9L146.6 425.17L146.32 424.38L146.02 423.53L145.71 422.63L145.39 421.69L145.06 420.69L144.71 419.64L144.35 418.54L143.98 417.41L143.59 416.22L143.21 415L142.8 413.73L142.38 412.42L141.96 411.08L141.53 409.69L141.09 408.27L140.64 406.82L140.19 405.33L139.73 403.82L139.26 402.26L138.78 400.68L138.3 399.08L137.81 397.44L137.32 395.79L136.83 394.11L136.33 392.41L135.83 390.68L135.33 388.93L134.82 387.17L122.58 344.39L103.21 389.88L101.82 393.17L100.5 396.29L99.24 399.27L98.04 402.08L96.91 404.75L95.83 407.27L94.83 409.65L93.87 411.88L92.97 413.98L92.12 415.96L91.32 417.8L90.56 419.52L89.85 421.13L89.19 422.62L88.58 424L87.99 425.28L87.45 426.46L86.94 427.53L86.46 428.51L86.03 429.4L85.61 430.21L85.22 430.94L84.86 431.58L84.52 432.15L84.21 432.66L83.91 433.09L83.63 433.47L83.36 433.79L83.1 434.06L82.87 434.28L82.63 434.45L82.41 434.57L82.19 434.67L81.96 434.73L81.74 434.76L81.52 434.76L81.29 434.75L81.06 434.72L80.82 434.68L80.57 434.62L80.34 434.57L80.1 434.5L79.89 434.43L79.68 434.35L79.48 434.24L79.28 434.11L79.09 433.95L78.91 433.76L78.74 433.53L78.55 433.25L78.39 432.93L78.22 432.55L78.05 432.11L77.89 431.61L77.72 431.05L77.56 430.41L77.38 429.69L77.21 428.89L77.04 428L76.86 427.02L76.67 425.94L76.48 424.75L76.27 423.46L76.07 422.06L75.86 420.54L75.63 418.9L75.39 417.12L75.15 415.23L74.89 413.19L74.62 411.01L74.34 408.68L74.04 406.2L73.72 403.57L73.39 400.78L73.04 397.81L72.67 394.68L72.29 391.37L71.89 387.88L71.46 384.2L71.01 380.34L70.76 378.14L70.5 375.97L70.25 373.81L69.99 371.68L69.75 369.58L69.5 367.51L69.26 365.47L69.02 363.45L68.78 361.48L68.55 359.53L68.32 357.63L68.11 355.77L67.89 353.94L67.67 352.15L67.46 350.42L67.26 348.72L67.06 347.08L66.86 345.48L66.69 343.93L66.5 342.45L66.33 341.01L66.16 339.63L66 338.31L65.84 337.05L65.7 335.85L65.55 334.71L65.42 333.65L65.3 332.64L65.18 331.71L65.07 330.84L64.98 330.05L64.88 329.33L64.8 328.69L64.73 328.13L64.67 327.65L64.61 327.25L64.57 326.94L64.53 326.7L64.51 326.56L64.49 326.51L64.47 326.49L64.42 326.48L64.35 326.48L64.23 326.49L64.1 326.52L63.95 326.54L63.55 326.63L63.31 326.69L63.05 326.74L62.77 326.81L62.46 326.89L62.14 326.98L61.79 327.07L61.42 327.16L61.04 327.27L60.62 327.39L60.19 327.5L59.74 327.63L59.28 327.76L58.79 327.9L58.29 328.05L57.77 328.2L57.23 328.35L56.68 328.51L56.12 328.69L55.54 328.86L54.95 329.03L54.34 329.21L53.72 329.4L53.09 329.59L52.45 329.79L51.8 329.99L51.14 330.19L50.46 330.4L49.09 330.82L48.39 331.04L47.69 331.27L46.97 331.49L45.73 331.88L44.48 332.27L43.23 332.64L41.97 333.02L38.21 334.1L36.94 334.44L35.7 334.78L34.45 335.12L33.21 335.45L31.98 335.76L29.54 336.37L28.35 336.66L27.16 336.94L25.99 337.21L24.84 337.47L23.71 337.73L22.6 337.96L21.5 338.2L20.43 338.42L19.38 338.62L18.37 338.81L17.37 339L16.41 339.17L15.47 339.33L14.57 339.48L13.7 339.61L12.86 339.72L12.05 339.83L11.29 339.92L10.57 340L9.89 340.07L9.24 340.11L8.64 340.15L8.09 340.16L7.58 340.15L7.11 340.15L6.71 340.11L6.61 340.1L6.28 340.04L6.17 340.01L6.06 339.98L5.94 339.94L5.82 339.91L5.71 339.87L5.58 339.82L5.46 339.78L5.09 339.62L4.96 339.56L4.83 339.49L4.58 339.37L4.45 339.29L4.33 339.22L4.19 339.14L4.07 339.07L3.94 338.99L3.82 338.91L3.69 338.83L3.56 338.74L3.44 338.65L3.2 338.47L3.09 338.38L2.97 338.28L2.53 337.87L2.33 337.67L2.13 337.45L2.04 337.34L1.95 337.24L1.87 337.14L1.69 336.94L1.61 336.83L1.52 336.73L1.44 336.63L1.36 336.52L1.28 336.43L1.21 336.32L1.13 336.22L1.06 336.11L0.99 336.01L0.92 335.91L0.78 335.71L0.72 335.6L0.6 335.41L0.55 335.31L0.49 335.22L0.44 335.12L0.39 335.04L0.35 334.94L0.3 334.85L0.26 334.76L0.23 334.68L0.19 334.59L0.16 334.51L0.12 334.43L0.1 334.35L0.06 334.21L0.04 334.14L0.02 334.07L0.02 334.01L0 333.95L0 333.89L0.01 333.79L0.04 333.69L0.13 333.52L0.26 333.27L0.45 332.94L0.69 332.53L0.97 332.06L1.31 331.5L1.68 330.88L2.11 330.19L2.58 329.43L3.09 328.6L3.65 327.71L4.24 326.76L4.88 325.74L5.55 324.67L6.27 323.54L7.01 322.35L7.81 321.1L8.63 319.81L9.48 318.46L10.37 317.07L11.29 315.63L12.24 314.13L15.26 309.4L16.33 307.74L17.42 306.05L18.53 304.31L19.66 302.55L20.83 300.75L22.01 298.92L23.21 297.05L24.42 295.17L25.66 293.25L26.92 291.31L28.19 289.35L29.47 287.36L30.77 285.36L32.08 283.34L33.4 281.32L34.69 279.32L35.98 277.33L37.25 275.37L38.5 273.43L39.74 271.52L40.96 269.64L42.16 267.78L43.34 265.96L44.49 264.16L45.63 262.4L46.74 260.67L47.83 258.98L48.89 257.33L49.92 255.72L50.93 254.14L51.92 252.62L52.87 251.14L53.78 249.7L54.67 248.31L56.35 245.69L57.13 244.46L57.89 243.28L58.6 242.17L59.27 241.11L59.9 240.11L60.5 239.16L61.06 238.29L61.57 237.47L62.04 236.73L62.46 236.05L62.83 235.45L63.16 234.91L63.45 234.45L63.68 234.06L63.87 233.75L64 233.52L64.09 233.37L64.12 233.3L64.1 233.26L64.04 233.21L63.94 233.16L63.8 233.1L63.62 233.05L63.4 232.98L63.15 232.92L62.86 232.84L62.52 232.77L62.16 232.69L61.76 232.61L61.33 232.53L60.87 232.44L60.37 232.35L59.84 232.27L59.29 232.17L58.69 232.08L58.08 231.97L57.44 231.87L56.76 231.77L56.06 231.66L55.34 231.55L54.6 231.44L53.82 231.33L53.03 231.22L52.22 231.11L51.38 230.99L50.52 230.87L49.65 230.76L48.75 230.65L47.84 230.52L46.9 230.4L45.96 230.28L45 230.16L44.03 230.04L43.03 229.93L42.03 229.8L41.02 229.68L39.99 229.57L38.95 229.45L37.17 229.23L35.48 229.02L33.87 228.82L32.33 228.63L30.88 228.45L29.5 228.28L28.2 228.12L26.97 227.96L25.81 227.8L24.72 227.65L23.69 227.51L22.73 227.37L21.83 227.25L20.99 227.12L20.21 226.98L19.47 226.87L18.8 226.75L18.17 226.62L17.6 226.51L17.07 226.39L16.58 226.27L16.14 226.15L15.74 226.04L15.37 225.92L15.04 225.81L14.74 225.69L14.48 225.56L14.24 225.43L14.04 225.3L13.86 225.17L13.69 225.03L13.56 224.89L13.43 224.73L13.33 224.58L13.24 224.42L13.16 224.25L13.1 224.08L13.04 223.89L12.99 223.7L12.94 223.5L12.91 223.31L12.91 223.1L12.94 222.85L13 222.56L13.08 222.23L13.21 221.87L13.37 221.45L13.55 221.01L13.79 220.51L14.05 219.96L14.35 219.37L14.68 218.73L15.06 218.04L15.47 217.3L15.93 216.5L16.43 215.65L16.98 214.75L17.56 213.78L18.19 212.76L18.87 211.67L19.59 210.52L21.18 208.03L22.05 206.7L22.97 205.27L23.94 203.8L24.97 202.25L26.04 200.62L27.17 198.92L28.36 197.14L29.6 195.29L30.9 193.36L32.26 191.35L33.67 189.26L35.16 187.08L36.69 184.82L38.3 182.47L39.96 180.04L41.68 177.52L43.48 174.9L45.32 172.21L47.09 169.61L48.79 167.12L50.42 164.72L51.98 162.42L53.48 160.22L54.92 158.1L56.29 156.07L57.59 154.13L58.83 152.28L60.02 150.52L61.14 148.83L62.2 147.23L63.21 145.7L64.15 144.26L65.05 142.89L65.89 141.6L67.41 139.23L68.09 138.14L68.72 137.13L69.31 136.18L69.84 135.3L70.33 134.48L70.77 133.71L71.17 133.01L71.53 132.36L71.83 131.77L72.1 131.22L72.33 130.74L72.52 130.3L72.67 129.91L72.79 129.57L72.86 129.26L72.9 129.01L72.91 128.8L72.88 128.61L72.82 128.47L72.73 128.36L72.61 128.3L72.51 128.26L72.39 128.23L72.26 128.18L72.1 128.14L71.93 128.08L71.73 128.02L71.53 127.95L71.29 127.88L71.05 127.81L70.79 127.72L70.52 127.64L70.22 127.55L69.92 127.46L69.6 127.35L69.27 127.25L68.92 127.14L68.56 127.03L68.19 126.92L67.41 126.68L67 126.56L66.58 126.43L66.15 126.3L65.72 126.17L65.27 126.03L64.36 125.75L63.89 125.62L63.41 125.46L62.93 125.32L62.44 125.17L61.94 125.03L60.42 124.57L59.9 124.42L58.87 124.11L57.82 123.8L57.18 123.61L56.57 123.43L55.96 123.24L55.39 123.07L54.83 122.89L54.27 122.72L53.75 122.55L53.23 122.38L52.72 122.22L52.25 122.06L51.78 121.9L51.34 121.74L50.9 121.59L50.49 121.43L50.1 121.28L49.71 121.14L49.34 120.99L49 120.85L48.67 120.72L48.35 120.57L48.05 120.44L47.78 120.31L47.51 120.18L47.25 120.06L47.02 119.93L46.8 119.81L46.61 119.69L46.42 119.58L46.25 119.46L46.09 119.35L45.95 119.23L45.83 119.13L45.72 119.02L45.63 118.92L45.55 118.82L45.49 118.71L45.45 118.62L45.42 118.53L45.41 118.43L45.41 118.34L45.54 117.82L45.84 117.09L46.31 116.15L46.94 115.01L47.72 113.69L48.63 112.19L49.69 110.52L50.88 108.69L52.18 106.73L53.61 104.62L55.13 102.37L56.77 100.02L58.48 97.55L60.29 94.98L62.18 92.33L64.15 89.59L66.17 86.79L68.25 83.92L70.38 81.01L72.55 78.06L74.76 75.07L77 72.06L79.26 69.04L81.53 66.02L83.81 63.01L86.09 60.02L88.36 57.05L90.62 54.12L92.85 51.24L95.06 48.41L97.23 45.65L99.35 42.97L101.44 40.37L103.45 37.87L105.4 35.47L109.08 31.03L110.81 29.01L112.42 27.14L113.95 25.42L114.36 24.94L114.83 24.44L115.32 23.88L115.85 23.3L116.42 22.68L117.01 22.03L117.63 21.36L118.28 20.66L118.95 19.94L119.64 19.2L120.35 18.44L121.08 17.66L121.81 16.87L122.56 16.08L123.32 15.27L124.86 13.64L125.63 12.84L126.4 12.03L127.16 11.22L127.93 10.43L128.68 9.64L129.42 8.87L130.16 8.11L130.87 7.37L131.57 6.65L132.24 5.95L132.9 5.28L133.53 4.63L134.14 4.02L134.71 3.44L135.25 2.89L135.75 2.39L136.23 1.92L136.66 1.5L137.05 1.12L137.4 0.8L137.7 0.52L137.96 0.28L138.16 0.11L138.21 0.08L138.27 0.04L138.35 0.02L138.44 0.01L138.54 0L138.65 0L138.77 0.01ZM138.92 26.35L138.51 27.08L137.98 28.02L137.34 29.2L136.58 30.58L135.74 32.16L134.79 33.91L133.78 35.84L132.67 37.91L131.5 40.12L130.27 42.47L128.97 44.92L127.63 47.46L126.25 50.09L124.84 52.79L123.39 55.54L121.93 58.34L120.46 61.17L118.97 64.02L117.5 66.86L116.02 69.68L114.57 72.48L113.14 75.25L111.73 77.96L110.37 80.6L109.06 83.15L107.79 85.62L106.58 87.97L105.44 90.2L104.38 92.29L103.39 94.24L102.49 96.02L101.68 97.62L100.98 99.03L100.39 100.23L99.92 101.22L99.57 101.96L99.34 102.47L99.26 102.72L99.26 102.75L99.27 102.79L99.29 102.84L99.33 102.89L99.36 102.95L99.42 103L99.48 103.08L99.63 103.24L99.72 103.32L99.81 103.41L99.92 103.51L100.03 103.6L100.15 103.72L100.28 103.82L100.41 103.93L100.56 104.05L100.7 104.18L100.86 104.29L101.02 104.43L101.2 104.56L101.37 104.7L101.55 104.83L101.73 104.98L101.93 105.12L102.14 105.26L102.34 105.41L102.77 105.72L103 105.87L103.22 106.04L103.45 106.19L103.69 106.36L103.93 106.52L104.17 106.68L104.42 106.85L104.67 107.02L104.93 107.18L105.19 107.35L105.45 107.52L105.7 107.69L105.95 107.85L106.2 108.02L106.69 108.35L107.63 109.02L107.85 109.18L108.06 109.33L108.28 109.5L108.49 109.65L108.7 109.81L109.09 110.11L109.28 110.26L109.47 110.41L109.65 110.55L110.15 110.96L110.44 111.21L110.58 111.34L110.71 111.45L110.95 111.68L111.15 111.88L111.24 111.98L111.32 112.07L111.45 112.23L111.5 112.31L111.55 112.37L111.57 112.44L111.59 112.49L111.61 112.54L111.61 112.58L111.6 112.66L111.55 112.79L111.48 112.97L111.39 113.19L111.27 113.47L111.13 113.8L110.98 114.16L110.79 114.59L110.58 115.05L110.36 115.55L110.11 116.09L109.85 116.69L109.56 117.31L109.26 117.99L108.93 118.69L108.58 119.43L108.23 120.21L107.85 121.03L107.45 121.87L107.05 122.75L106.62 123.66L106.18 124.6L105.72 125.57L105.26 126.56L104.77 127.59L104.28 128.64L103.77 129.72L103.24 130.82L102.71 131.95L102.17 133.09L101.61 134.26L101.05 135.44L100.48 136.65L99.9 137.87L99.3 139.11L98.7 140.35L98.09 141.63L97.49 142.91L96.86 144.2L96.24 145.51L94.98 148.11L94.36 149.39L93.75 150.66L93.14 151.93L92.54 153.17L91.94 154.41L91.35 155.62L90.78 156.83L90.2 158L89.64 159.16L89.08 160.31L88.54 161.43L88.02 162.52L87.49 163.6L86.98 164.64L86.49 165.67L86 166.66L85.53 167.63L85.08 168.57L84.64 169.47L84.21 170.34L83.8 171.19L83.41 171.99L83.03 172.76L82.68 173.5L82.33 174.2L82.01 174.86L81.71 175.48L81.42 176.06L81.17 176.6L80.92 177.1L80.7 177.55L80.51 177.96L80.33 178.32L80.18 178.63L80.06 178.9L79.96 179.12L79.88 179.28L79.83 179.39L79.71 179.59L79.63 179.8L79.56 179.99L79.51 180.18L79.47 180.35L79.47 180.53L79.48 180.7L79.5 180.87L79.56 181.03L79.64 181.19L79.74 181.34L79.87 181.48L80.02 181.63L80.21 181.77L80.42 181.91L80.66 182.05L80.93 182.19L81.23 182.32L81.57 182.44L81.94 182.57L82.33 182.7L82.76 182.83L83.23 182.95L83.74 183.08L84.28 183.2L84.87 183.33L85.49 183.46L86.15 183.58L86.85 183.71L87.6 183.84L88.38 183.98L89.22 184.1L90.1 184.24L91.02 184.37L91.98 184.51L93 184.66L94.06 184.8L95.17 184.96L96.33 185.11L97.54 185.27L98.59 185.42L99.1 185.49L99.61 185.58L100.11 185.65L100.62 185.73L101.11 185.81L102.08 185.97L102.56 186.04L103.48 186.2L104.37 186.35L104.81 186.44L105.64 186.58L106.04 186.67L106.42 186.74L106.8 186.81L107.16 186.88L107.52 186.96L107.86 187.03L108.19 187.1L108.5 187.17L108.8 187.24L109.08 187.31L109.34 187.37L109.6 187.44L109.82 187.5L110.05 187.56L110.24 187.62L110.43 187.68L110.59 187.74L110.74 187.79L110.86 187.85L110.98 187.9L111.06 187.95L111.13 187.99L111.17 188.04L111.2 188.11L111.18 188.24L111.13 188.44L111.06 188.68L110.95 188.99L110.82 189.34L110.65 189.75L110.45 190.22L110.24 190.73L109.99 191.29L109.7 191.9L109.4 192.55L109.08 193.26L108.72 194L108.34 194.79L107.94 195.62L107.51 196.49L107.06 197.4L106.6 198.35L106.11 199.34L105.6 200.36L105.06 201.41L104.51 202.5L103.94 203.63L103.35 204.77L102.74 205.96L102.12 207.17L101.47 208.41L100.82 209.67L100.15 210.96L99.46 212.27L98.75 213.6L98.04 214.95L97.31 216.33L96.57 217.73L95.82 219.14L95.06 220.56L94.28 222L93.5 223.46L92.71 224.92L91.92 226.4L91.14 227.85L90.38 229.3L89.61 230.73L88.86 232.15L88.12 233.54L87.39 234.91L86.68 236.26L85.98 237.59L85.28 238.89L84.6 240.17L83.93 241.42L83.28 242.64L82.65 243.84L82.03 245.02L81.43 246.15L80.85 247.25L80.28 248.32L79.73 249.36L79.2 250.36L78.7 251.32L78.21 252.25L77.75 253.13L77.31 253.98L76.89 254.78L76.49 255.54L76.12 256.27L75.77 256.94L75.45 257.57L75.15 258.15L74.88 258.67L74.64 259.16L74.42 259.59L74.24 259.97L74.09 260.3L73.96 260.57L73.87 260.78L73.81 260.94L73.78 261.04L73.77 261.08L73.79 261.09L73.83 261.1L73.89 261.09L73.96 261.09L74.06 261.08L74.16 261.06L74.29 261.04L74.43 261.02L74.59 260.99L74.76 260.96L74.95 260.92L75.15 260.88L75.38 260.84L75.61 260.79L75.86 260.74L76.12 260.68L76.4 260.62L76.68 260.56L76.98 260.5L77.29 260.43L77.95 260.28L78.3 260.21L78.66 260.13L79.4 259.96L79.79 259.87L80.6 259.7L81.01 259.6L81.44 259.5L81.86 259.41L82.31 259.31L82.75 259.21L83.2 259.11L84.13 258.9L85.55 258.57L86.46 258.35L87.32 258.15L88.15 257.96L88.94 257.77L89.71 257.61L90.45 257.45L91.14 257.31L91.81 257.17L92.45 257.06L93.05 256.95L93.63 256.86L94.18 256.78L94.7 256.71L95.19 256.67L95.66 256.63L96.09 256.61L96.51 256.59L96.89 256.59L97.25 256.61L97.59 256.65L97.91 256.69L98.19 256.74L98.46 256.82L98.71 256.9L98.93 257L99.13 257.11L99.32 257.24L99.48 257.39L99.62 257.54L99.75 257.71L99.85 257.9L99.94 258.1L100.02 258.31L100.07 258.55L100.12 258.79L100.14 259.05L100.15 259.32L100.15 259.61L100.13 259.92L100.11 260.24L100.09 260.58L100.1 261.11L100.11 261.84L100.13 262.74L100.18 263.82L100.25 265.04L100.32 266.4L100.41 267.91L100.51 269.54L100.61 271.29L100.73 273.13L100.86 275.08L101 277.1L101.14 279.2L101.29 281.36L101.44 283.58L101.61 285.83L101.77 288.11L102.11 292.73L102.29 295.04L102.46 297.34L102.63 299.62L102.81 301.87L102.99 304.08L103.17 306.23L103.33 308.32L103.5 310.34L103.66 312.26L103.82 314.11L103.97 315.84L104.12 317.46L104.25 318.95L104.38 320.3L104.51 321.51L104.62 322.57L104.71 323.46L104.8 324.16L104.88 324.68L104.94 325L105.01 325.15L105.08 325.23L105.17 325.27L105.26 325.24L105.38 325.17L105.51 325.02L105.65 324.81L105.81 324.55L105.98 324.22L106.16 323.84L106.37 323.39L106.58 322.88L106.82 322.31L107.06 321.67L107.33 320.97L107.61 320.21L107.9 319.38L108.21 318.48L108.55 317.52L108.88 316.49L109.25 315.41L109.62 314.24L110.01 313.01L110.43 311.72L110.86 310.35L111.3 308.91L111.77 307.42L112.25 305.84L112.74 304.19L113.26 302.47L113.79 300.69L114.35 298.83L114.92 296.89L115.51 294.89L116.12 292.8L116.75 290.65L117.4 288.42L118.06 286.12L118.74 283.73L119.44 281.27L119.92 279.66L120.36 278.11L120.78 276.65L121.18 275.24L121.57 273.92L121.95 272.66L122.29 271.47L122.63 270.34L122.96 269.28L123.26 268.27L123.55 267.33L123.83 266.44L124.1 265.61L124.36 264.83L124.6 264.11L124.83 263.44L125.05 262.81L125.27 262.24L125.47 261.71L125.67 261.22L125.86 260.77L126.05 260.36L126.23 260L126.4 259.66L126.57 259.37L126.74 259.11L126.91 258.88L127.07 258.68L127.23 258.5L127.39 258.36L127.56 258.24L127.72 258.13L127.88 258.05L128.21 257.94L128.38 257.92L128.57 257.91L128.75 257.91L129.13 257.93L129.32 257.96L129.49 257.99L129.67 258.04L129.83 258.08L130 258.15L130.16 258.24L130.32 258.34L130.47 258.44L130.62 258.58L130.77 258.73L130.92 258.89L131.06 259.09L131.21 259.29L131.34 259.53L131.49 259.8L131.63 260.08L131.76 260.4L131.91 260.75L132.05 261.11L132.2 261.52L132.34 261.96L132.5 262.43L132.65 262.93L132.81 263.46L132.97 264.04L133.14 264.65L133.31 265.31L133.48 266.01L133.66 266.74L133.84 267.51L134.04 268.34L134.24 269.21L134.44 270.13L134.66 271.09L134.88 272.11L135.11 273.17L135.35 274.28L135.6 275.45L135.87 276.67L136.13 277.94L136.3 278.75L136.48 279.56L136.81 281.14L136.98 281.92L137.14 282.69L137.47 284.21L137.62 284.95L137.76 285.68L137.92 286.4L138.06 287.11L138.2 287.8L138.33 288.48L138.48 289.15L138.6 289.79L138.73 290.43L138.85 291.05L138.97 291.64L139.08 292.23L139.19 292.79L139.29 293.34L139.39 293.85L139.49 294.35L139.58 294.83L139.66 295.29L139.73 295.72L139.81 296.14L139.87 296.52L139.93 296.88L139.99 297.22L140.05 297.54L140.09 297.81L140.12 298.07L140.16 298.3L140.18 298.5L140.2 298.67L140.21 298.8L140.21 298.91L140.2 299.05L140.2 299.11L140.2 299.17L140.21 299.41L140.21 299.49L140.24 299.61L140.25 299.67L140.27 299.79L140.29 299.87L140.31 299.93L140.33 299.99L140.35 300.05L140.37 300.11L140.44 300.29L140.47 300.35L140.49 300.41L140.51 300.46L140.55 300.53L140.57 300.58L140.61 300.63L140.63 300.69L140.7 300.79L140.74 300.84L140.76 300.89L140.94 301.11L140.97 301.14L141.01 301.19L141.05 301.22L141.1 301.23L141.16 301.19L141.22 301.12L141.29 301L141.38 300.83L141.47 300.62L141.57 300.38L141.67 300.09L141.77 299.76L141.89 299.4L142.02 298.99L142.14 298.55L142.28 298.07L142.42 297.57L142.56 297.02L142.72 296.44L142.87 295.83L143.03 295.19L143.2 294.52L143.36 293.81L143.54 293.08L143.71 292.32L143.9 291.54L144.08 290.72L144.26 289.89L144.45 289.02L144.64 288.14L144.84 287.22L145.04 286.29L145.24 285.33L145.44 284.36L145.64 283.37L145.85 282.36L146.05 281.33L146.25 280.28L146.47 279.22L146.67 278.14L146.88 277.06L147.09 275.96L147.3 274.83L147.92 271.49L148.33 269.3L148.54 268.21L148.75 267.14L149.15 265.03L149.35 264L149.75 261.97L149.93 260.98L150.13 260.01L150.32 259.06L150.49 258.12L150.68 257.21L150.86 256.31L151.03 255.44L151.2 254.6L151.36 253.77L151.53 252.97L151.69 252.21L151.84 251.46L151.98 250.74L152.13 250.05L152.27 249.39L152.4 248.77L152.53 248.17L152.64 247.61L152.76 247.08L152.87 246.59L152.97 246.14L153.07 245.71L153.16 245.33L153.23 244.99L153.3 244.68L153.37 244.42L153.43 244.2L153.48 244.03L153.56 243.78L153.63 243.55L153.71 243.34L153.79 243.14L153.88 242.96L153.96 242.8L154.06 242.67L154.16 242.55L154.27 242.46L154.4 242.4L154.54 242.36L154.7 242.36L154.86 242.37L155.05 242.42L155.25 242.51L155.47 242.62L155.72 242.77L155.99 242.95L156.29 243.18L156.6 243.43L156.95 243.73L157.33 244.07L157.74 244.46L158.18 244.87L158.65 245.35L159.16 245.86L159.72 246.42L160.3 247.03L160.92 247.69L161.59 248.4L162.3 249.16L163.04 249.97L163.85 250.84L164.7 251.77L165.59 252.75L166.52 253.8L167.52 254.9L168.57 256.05L169.67 257.27L170.83 258.56L172.82 260.82L173.49 261.57L174.15 262.32L174.81 263.05L175.48 263.8L176.12 264.53L176.78 265.25L177.43 265.97L178.07 266.69L179.33 268.09L179.95 268.78L180.56 269.46L181.17 270.13L181.76 270.78L182.92 272.05L183.48 272.66L184.02 273.26L184.56 273.85L185.07 274.42L185.57 274.97L186.07 275.51L186.54 276.02L187 276.52L187.44 277L187.86 277.46L188.26 277.89L188.64 278.3L189.01 278.69L189.36 279.06L189.67 279.41L189.97 279.72L190.24 280.01L190.5 280.28L190.72 280.52L190.93 280.72L191.1 280.91L195.34 285.24L192.91 277.76L192.79 277.42L192.65 277.02L192.49 276.57L192.3 276.06L192.1 275.49L191.87 274.87L191.63 274.19L191.36 273.46L191.09 272.68L190.78 271.85L190.47 270.97L190.13 270.05L189.78 269.09L189.42 268.08L189.03 267.03L188.64 265.93L188.23 264.81L187.8 263.64L187.36 262.44L186.92 261.21L186.45 259.94L185.98 258.65L185.5 257.32L185 255.97L184.5 254.59L183.98 253.19L183.46 251.75L182.93 250.31L182.38 248.85L181.83 247.35L181.28 245.85L180.72 244.33L180.15 242.8L179.58 241.25L178.42 238.13L177.83 236.55L177.24 234.98L176.65 233.39L176.06 231.8L175.47 230.22L174.9 228.65L174.33 227.1L173.76 225.57L173.21 224.05L172.67 222.55L172.14 221.06L171.62 219.61L171.1 218.17L170.6 216.76L170.11 215.37L169.63 214.01L169.17 212.69L168.71 211.38L168.27 210.11L167.84 208.87L167.42 207.66L167.02 206.49L166.64 205.35L166.26 204.26L165.91 203.19L165.56 202.17L165.25 201.19L164.94 200.26L164.65 199.36L164.38 198.52L164.12 197.72L163.89 196.96L163.67 196.25L163.48 195.6L163.3 195L163.15 194.45L163.01 193.95L162.9 193.52L162.8 193.13L162.74 192.81L162.69 192.54L162.67 192.34L162.66 192.19L162.69 192.12L162.73 192.06L162.79 192.01L162.86 191.94L162.95 191.89L163.04 191.84L163.16 191.78L163.27 191.74L163.41 191.68L163.56 191.63L163.72 191.58L163.89 191.54L164.07 191.49L164.27 191.45L164.47 191.4L164.68 191.36L164.91 191.31L165.13 191.28L165.38 191.23L165.62 191.2L165.89 191.17L166.15 191.12L166.7 191.06L167 191.03L167.29 191.01L167.9 190.96L168.21 190.94L168.54 190.92L168.86 190.9L169.18 190.89L169.52 190.87L169.86 190.86L170.2 190.86L170.55 190.84L170.9 190.84L171.25 190.84L171.6 190.84L172.32 190.86L172.69 190.84L173.04 190.84L173.4 190.84L173.75 190.83L174.1 190.82L174.78 190.79L175.45 190.76L176.1 190.73L176.73 190.7L177.03 190.67L177.62 190.63L177.89 190.6L178.18 190.58L178.44 190.54L178.7 190.52L178.95 190.49L179.19 190.46L179.43 190.43L179.66 190.4L179.88 190.36L180.08 190.34L180.28 190.31L180.47 190.27L180.65 190.23L180.81 190.2L180.96 190.17L181.11 190.13L181.36 190.06L181.46 190.02L181.56 189.99L181.64 189.95L181.7 189.91L181.76 189.88L181.8 189.84L181.83 189.78L181.83 189.68L181.81 189.54L181.78 189.36L181.74 189.13L181.66 188.87L181.58 188.57L181.48 188.24L181.36 187.86L181.22 187.46L181.07 187.02L180.9 186.54L180.71 186.04L180.52 185.49L180.31 184.92L180.08 184.32L179.83 183.69L179.58 183.03L179.31 182.35L179.04 181.64L178.74 180.89L178.43 180.14L178.12 179.35L177.78 178.54L177.45 177.7L177.1 176.85L176.73 175.98L176.36 175.08L175.98 174.17L175.58 173.24L175.18 172.29L174.77 171.34L174.36 170.36L173.93 169.37L173.49 168.36L173.06 167.33L172.6 166.31L172.15 165.27L170.76 162.11L170.31 161.05L169.42 158.99L168.98 157.98L168.56 156.98L168.14 155.99L167.73 155.02L167.32 154.07L166.93 153.13L166.53 152.21L166.16 151.31L165.79 150.42L165.42 149.56L165.08 148.72L164.73 147.9L164.4 147.11L164.09 146.33L163.78 145.59L163.48 144.86L163.21 144.16L162.93 143.5L162.68 142.85L162.43 142.24L162.2 141.65L161.98 141.09L161.78 140.58L161.59 140.09L161.41 139.63L161.25 139.2L161.11 138.81L160.99 138.46L160.87 138.14L160.78 137.86L160.71 137.62L160.65 137.41L160.6 137.25L160.58 137.12L160.57 137.04L160.58 137L160.61 136.99L160.66 136.96L160.74 136.94L160.83 136.91L160.94 136.88L161.22 136.82L161.39 136.78L161.57 136.75L161.77 136.7L161.99 136.66L162.22 136.61L162.48 136.57L162.73 136.52L163.31 136.42L163.61 136.36L163.93 136.31L164.27 136.26L164.62 136.19L164.97 136.14L165.34 136.08L165.72 136.02L166.12 135.95L166.52 135.89L167.36 135.76L167.79 135.69L168.23 135.63L168.67 135.56L169.13 135.5L169.59 135.43L170.06 135.36L170.54 135.3L172.01 135.09L173.01 134.95L173.52 134.89L174.03 134.83L174.53 134.77L175.03 134.7L175.52 134.64L176.48 134.5L177.42 134.36L178.32 134.21L178.76 134.14L179.19 134.06L180.03 133.91L180.43 133.83L180.82 133.75L181.2 133.67L181.57 133.59L181.93 133.51L182.27 133.43L182.61 133.35L182.93 133.27L183.53 133.11L183.81 133.04L184.07 132.96L184.32 132.88L184.56 132.81L184.78 132.74L184.98 132.66L185.16 132.59L185.32 132.53L185.48 132.46L185.61 132.4L185.73 132.33L185.82 132.27L185.89 132.21L185.95 132.15L185.98 132.1L186 132.04L185.99 131.96L185.96 131.83L185.91 131.65L185.83 131.42L185.75 131.15L185.64 130.84L185.52 130.49L185.38 130.09L185.22 129.65L185.05 129.17L184.87 128.65L184.66 128.09L184.45 127.51L184.22 126.87L183.98 126.21L183.72 125.51L183.44 124.78L183.16 124.01L182.86 123.23L182.55 122.4L181.89 120.66L181.55 119.75L181.19 118.82L180.83 117.87L180.45 116.88L180.08 115.87L179.68 114.84L179.28 113.79L178.87 112.72L178.45 111.63L178.02 110.52L177.59 109.39L177.15 108.25L176.7 107.1L176.25 105.92L175.8 104.74L175.33 103.54L174.4 101.11L173.91 99.9L173.43 98.7L172.97 97.51L172.5 96.34L172.04 95.17L171.59 94.03L171.15 92.9L170.71 91.78L170.27 90.68L169.86 89.6L169.44 88.54L169.04 87.5L168.64 86.48L168.27 85.49L167.89 84.52L167.52 83.57L167.18 82.65L166.83 81.75L166.5 80.89L166.18 80.05L165.88 79.24L165.04 77L164.78 76.32L164.54 75.68L164.31 75.07L164.1 74.5L163.91 73.96L163.73 73.47L163.57 73.01L163.42 72.59L163.29 72.22L163.17 71.89L163.07 71.6L162.98 71.36L162.93 71.16L162.85 70.9L162.85 70.85L162.86 70.82L162.88 70.78L162.92 70.74L162.97 70.68L163.17 70.51L163.27 70.44L163.38 70.37L163.49 70.29L163.62 70.22L163.76 70.13L164.06 69.94L164.23 69.85L164.4 69.75L164.58 69.64L164.77 69.54L164.98 69.43L165.19 69.32L165.4 69.21L165.63 69.09L165.86 68.97L166.09 68.85L166.34 68.72L166.85 68.47L167.11 68.34L167.94 67.95L168.22 67.81L168.51 67.67L168.81 67.53L169.1 67.4L170.02 66.99L170.34 66.85L170.64 66.71L171.29 66.44L171.61 66.3L172.53 65.88L173.12 65.6L173.41 65.47L173.69 65.33L173.97 65.19L174.5 64.92L174.76 64.79L175.25 64.52L175.48 64.39L175.71 64.27L176.13 64.01L176.34 63.89L176.53 63.77L176.72 63.65L176.89 63.54L177.21 63.31L177.36 63.2L177.49 63.1L177.62 63L177.73 62.9L177.93 62.72L178.01 62.64L178.08 62.56L178.13 62.47L178.17 62.4L178.23 62.27L178.22 62.21L178.22 62.16L178.11 61.92L177.87 61.57L177.51 61.11L177.02 60.54L176.43 59.88L175.73 59.13L174.95 58.29L174.07 57.39L173.09 56.4L172.06 55.36L170.95 54.24L169.77 53.09L168.54 51.89L167.26 50.64L165.95 49.37L164.59 48.07L163.21 46.74L161.81 45.41L160.38 44.07L158.97 42.73L157.54 41.39L156.11 40.07L154.71 38.76L153.31 37.49L151.96 36.24L150.62 35.03L149.34 33.86L148.09 32.75L146.9 31.69L145.78 30.7L144.72 29.77L143.74 28.92L142.83 28.16L142.02 27.48L141.29 26.91L140.67 26.43L140.16 26.06L139.77 25.81L139.49 25.68L139.35 25.68L139.21 25.88L138.92 26.35Z" id="f8F2B7vct"></path></defs><g><g><g><use xlink:href="#a4c9EJAg4n" opacity="1" fill="#e3e33c" fill-opacity="1"></use><g><use xlink:href="#a4c9EJAg4n" opacity="1" fill-opacity="0" stroke="#000000" stroke-width="1" stroke-opacity="0"></use></g></g><g><use xlink:href="#ah10bVawT" opacity="1" fill="#e3e33c" fill-opacity="1"></use><g><use xlink:href="#ah10bVawT" opacity="1" fill-opacity="0" stroke="#000000" stroke-width="1" stroke-opacity="0"></use></g></g><g><use xlink:href="#hCyZ1NgSp" opacity="1" fill="#e3e33c" fill-opacity="1"></use><g><use xlink:href="#hCyZ1NgSp" opacity="1" fill-opacity="0" stroke="#000000" stroke-width="1" stroke-opacity="0"></use></g></g><g><use xlink:href="#cdWEkriij" opacity="1" fill="#e3e33c" fill-opacity="1"></use><g><use xlink:href="#cdWEkriij" opacity="1" fill-opacity="0" stroke="#000000" stroke-width="1" stroke-opacity="0"></use></g></g><g><use xlink:href="#c2kMY4t1RZ" opacity="1" fill="#e3e33c" fill-opacity="1"></use><g><use xlink:href="#c2kMY4t1RZ" opacity="1" fill-opacity="0" stroke="#000000" stroke-width="1" stroke-opacity="0"></use></g></g><g><use xlink:href="#gGDHaqNnG" opacity="1" fill="#e3e33c" fill-opacity="1"></use><g><use xlink:href="#gGDHaqNnG" opacity="1" fill-opacity="0" stroke="#000000" stroke-width="1" stroke-opacity="0"></use></g></g><g><use xlink:href="#b1sh9gc82E" opacity="1" fill="#ff9900" fill-opacity="1"></use><g><use xlink:href="#b1sh9gc82E" opacity="1" fill-opacity="0" stroke="#000000" stroke-width="1" stroke-opacity="0"></use></g></g><g><use xlink:href="#f8F2B7vct" opacity="1" fill="#000000" fill-opacity="0"></use><g><use xlink:href="#f8F2B7vct" opacity="1" fill-opacity="0" stroke="#000000" stroke-width="1" stroke-opacity="0"></use></g></g></g></g></svg>