<?xml version="1.0" encoding="UTF-8"?>
<svg enable-background="new 0 0 284.159 284.159" version="1.1" viewBox="0 0 284.159 284.159" xml:space="preserve" xmlns="http://www.w3.org/2000/svg">
	<path d="m279.47 57.158l-42.014-42.908c-8.045-4.47-14.303-0.894-14.303 8.939v25.03h-134.09c-82.24 0-80.453 57.211-80.453 62.574v62.574s35.757-34.863 35.757-35.757v-25.924c0 0.894 1.788-27.711 44.696-27.711h134.09v25.03c0 9.833 6.257 13.409 14.303 8.939l42.014-42.908c6.257-7.151 6.257-11.621 0-17.878zm-3.576 53.635s-35.757 34.863-35.757 35.757v25.924c0-0.894-1.788 27.711-44.696 27.711h-134.09v-25.03c0-9.833-6.257-13.409-14.303-8.939l-42.014 42.908c-6.257 6.257-7.151 10.727 0 17.878l42.014 42.908c8.045 4.47 14.303 0.894 14.303-8.939v-25.03h134.09c82.24 0 80.453-57.211 80.453-62.574v-62.574h-1e-3z" fill="#3DB39E"/>
</svg>
